<mxfile host="app.diagrams.net" modified="2023-01-31T11:19:50.679Z" agent="5.0 (Windows NT 10.0; Win64; x64) AppleWebKit/537.36 (KHTML, like Gecko) Chrome/109.0.0.0 Safari/537.36" version="20.8.4" etag="nioVXDy-lrlJiPbGh5T9" type="github">
  <diagram id="WFyQi9ku4YcuFCDFZRj_" name="第 1 页">
    <mxGraphModel dx="700" dy="366" grid="0" gridSize="10" guides="1" tooltips="1" connect="1" arrows="1" fold="1" page="1" pageScale="1" pageWidth="827" pageHeight="1169" math="0" shadow="0">
      <root>
        <mxCell id="0" />
        <mxCell id="1" parent="0" />
        <mxCell id="LZZpkKF-DLMGYk2NbYWf-9" value="" style="endArrow=classic;html=1;rounded=0;strokeWidth=2;opacity=60;" edge="1" parent="1">
          <mxGeometry width="50" height="50" relative="1" as="geometry">
            <mxPoint x="388" y="95" as="sourcePoint" />
            <mxPoint x="388" y="152" as="targetPoint" />
          </mxGeometry>
        </mxCell>
        <mxCell id="LZZpkKF-DLMGYk2NbYWf-10" value="&lt;font size=&quot;1&quot; face=&quot;Times New Roman&quot;&gt;&lt;b style=&quot;font-size: 14px;&quot;&gt;Conv2d (32, Relu)&lt;/b&gt;&lt;/font&gt;" style="rounded=0;whiteSpace=wrap;html=1;strokeWidth=2;opacity=80;" vertex="1" parent="1">
          <mxGeometry x="324" y="153" width="120" height="44" as="geometry" />
        </mxCell>
        <mxCell id="LZZpkKF-DLMGYk2NbYWf-11" value="&lt;b&gt;5 x 5&lt;/b&gt;" style="text;html=1;strokeColor=none;fillColor=none;align=center;verticalAlign=middle;whiteSpace=wrap;rounded=0;fontFamily=Times New Roman;fontSize=14;" vertex="1" parent="1">
          <mxGeometry x="438" y="163" width="60" height="30" as="geometry" />
        </mxCell>
        <mxCell id="LZZpkKF-DLMGYk2NbYWf-12" value="" style="endArrow=classic;html=1;rounded=0;fontFamily=Times New Roman;fontSize=14;entryX=0.5;entryY=0;entryDx=0;entryDy=0;strokeWidth=2;opacity=60;" edge="1" parent="1" target="LZZpkKF-DLMGYk2NbYWf-13">
          <mxGeometry width="50" height="50" relative="1" as="geometry">
            <mxPoint x="333" y="198" as="sourcePoint" />
            <mxPoint x="267" y="233" as="targetPoint" />
          </mxGeometry>
        </mxCell>
        <mxCell id="LZZpkKF-DLMGYk2NbYWf-13" value="&lt;b&gt;Conv2d (16, Relu)&lt;/b&gt;" style="rounded=0;whiteSpace=wrap;html=1;fontFamily=Times New Roman;fontSize=14;strokeWidth=2;opacity=80;" vertex="1" parent="1">
          <mxGeometry x="197" y="258" width="117" height="43" as="geometry" />
        </mxCell>
        <mxCell id="LZZpkKF-DLMGYk2NbYWf-14" value="&lt;b&gt;Conv2d (16)&lt;/b&gt;" style="rounded=0;whiteSpace=wrap;html=1;fontFamily=Times New Roman;fontSize=14;strokeWidth=2;opacity=80;strokeColor=#0000FF;" vertex="1" parent="1">
          <mxGeometry x="324" y="258" width="117" height="43" as="geometry" />
        </mxCell>
        <mxCell id="LZZpkKF-DLMGYk2NbYWf-15" value="" style="endArrow=classic;html=1;rounded=0;fontFamily=Times New Roman;fontSize=14;strokeWidth=2;" edge="1" parent="1">
          <mxGeometry width="50" height="50" relative="1" as="geometry">
            <mxPoint x="388" y="197" as="sourcePoint" />
            <mxPoint x="388" y="258" as="targetPoint" />
          </mxGeometry>
        </mxCell>
        <mxCell id="LZZpkKF-DLMGYk2NbYWf-16" value="&lt;b&gt;Conv2d (16)&lt;/b&gt;" style="rounded=0;whiteSpace=wrap;html=1;fontFamily=Times New Roman;fontSize=14;strokeWidth=2;opacity=80;strokeColor=#0000FF;" vertex="1" parent="1">
          <mxGeometry x="452" y="258" width="117" height="43" as="geometry" />
        </mxCell>
        <mxCell id="LZZpkKF-DLMGYk2NbYWf-17" value="" style="endArrow=classic;html=1;rounded=0;fontFamily=Times New Roman;fontSize=14;strokeWidth=2;" edge="1" parent="1">
          <mxGeometry width="50" height="50" relative="1" as="geometry">
            <mxPoint x="435" y="197" as="sourcePoint" />
            <mxPoint x="510" y="256" as="targetPoint" />
          </mxGeometry>
        </mxCell>
        <mxCell id="LZZpkKF-DLMGYk2NbYWf-18" value="&lt;b&gt;1 x 1&lt;/b&gt;" style="text;html=1;strokeColor=none;fillColor=none;align=center;verticalAlign=middle;whiteSpace=wrap;rounded=0;fontFamily=Times New Roman;fontSize=14;" vertex="1" parent="1">
          <mxGeometry x="578" y="264.5" width="60" height="30" as="geometry" />
        </mxCell>
        <mxCell id="LZZpkKF-DLMGYk2NbYWf-19" value="" style="endArrow=classic;html=1;rounded=0;fontFamily=Times New Roman;fontSize=14;strokeWidth=2;opacity=60;" edge="1" parent="1">
          <mxGeometry width="50" height="50" relative="1" as="geometry">
            <mxPoint x="384.5" y="302" as="sourcePoint" />
            <mxPoint x="384.5" y="356" as="targetPoint" />
          </mxGeometry>
        </mxCell>
        <mxCell id="LZZpkKF-DLMGYk2NbYWf-20" value="&lt;b&gt;Conv2d (80, Relu)&lt;/b&gt;" style="rounded=0;whiteSpace=wrap;html=1;fontFamily=Times New Roman;fontSize=14;strokeWidth=2;opacity=80;" vertex="1" parent="1">
          <mxGeometry x="324" y="356" width="114" height="47" as="geometry" />
        </mxCell>
        <mxCell id="LZZpkKF-DLMGYk2NbYWf-21" value="&lt;b&gt;3 x 3&lt;/b&gt;" style="text;html=1;strokeColor=none;fillColor=none;align=center;verticalAlign=middle;whiteSpace=wrap;rounded=0;fontFamily=Times New Roman;fontSize=14;" vertex="1" parent="1">
          <mxGeometry x="275" y="367" width="34" height="25" as="geometry" />
        </mxCell>
        <mxCell id="LZZpkKF-DLMGYk2NbYWf-22" value="&lt;b style=&quot;border-color: var(--border-color);&quot;&gt;Conv2d (32, Relu)&lt;/b&gt;" style="rounded=0;whiteSpace=wrap;html=1;fontFamily=Times New Roman;fontSize=14;strokeWidth=2;opacity=80;" vertex="1" parent="1">
          <mxGeometry x="452" y="356" width="113" height="47" as="geometry" />
        </mxCell>
        <mxCell id="LZZpkKF-DLMGYk2NbYWf-23" value="&lt;b&gt;2 x 2&lt;/b&gt;" style="text;html=1;strokeColor=none;fillColor=none;align=center;verticalAlign=middle;whiteSpace=wrap;rounded=0;fontFamily=Times New Roman;fontSize=14;" vertex="1" parent="1">
          <mxGeometry x="591" y="367" width="34" height="25" as="geometry" />
        </mxCell>
        <mxCell id="LZZpkKF-DLMGYk2NbYWf-24" value="" style="endArrow=classic;html=1;rounded=0;fontFamily=Times New Roman;fontSize=14;strokeWidth=2;" edge="1" parent="1">
          <mxGeometry width="50" height="50" relative="1" as="geometry">
            <mxPoint x="510" y="302" as="sourcePoint" />
            <mxPoint x="510" y="356" as="targetPoint" />
            <Array as="points" />
          </mxGeometry>
        </mxCell>
        <mxCell id="LZZpkKF-DLMGYk2NbYWf-25" value="" style="endArrow=classic;html=1;rounded=0;fontFamily=Times New Roman;fontSize=14;strokeWidth=2;opacity=60;" edge="1" parent="1">
          <mxGeometry width="50" height="50" relative="1" as="geometry">
            <mxPoint x="252" y="301" as="sourcePoint" />
            <mxPoint x="252" y="457" as="targetPoint" />
          </mxGeometry>
        </mxCell>
        <mxCell id="LZZpkKF-DLMGYk2NbYWf-26" value="" style="endArrow=classic;html=1;rounded=0;fontFamily=Times New Roman;fontSize=14;strokeWidth=2;opacity=60;" edge="1" parent="1">
          <mxGeometry width="50" height="50" relative="1" as="geometry">
            <mxPoint x="382.21" y="403" as="sourcePoint" />
            <mxPoint x="382" y="457" as="targetPoint" />
          </mxGeometry>
        </mxCell>
        <mxCell id="LZZpkKF-DLMGYk2NbYWf-27" value="" style="endArrow=classic;html=1;rounded=0;fontFamily=Times New Roman;fontSize=14;strokeWidth=2;opacity=60;" edge="1" parent="1">
          <mxGeometry width="50" height="50" relative="1" as="geometry">
            <mxPoint x="510" y="403" as="sourcePoint" />
            <mxPoint x="510" y="457" as="targetPoint" />
          </mxGeometry>
        </mxCell>
        <mxCell id="LZZpkKF-DLMGYk2NbYWf-28" value="&lt;b&gt;concate (128)&lt;/b&gt;" style="rounded=0;whiteSpace=wrap;html=1;fontFamily=Times New Roman;fontSize=14;strokeWidth=2;opacity=80;" vertex="1" parent="1">
          <mxGeometry x="204" y="458" width="339" height="23" as="geometry" />
        </mxCell>
        <mxCell id="LZZpkKF-DLMGYk2NbYWf-30" value="" style="endArrow=classic;html=1;rounded=0;fontFamily=Times New Roman;fontSize=14;strokeWidth=2;opacity=60;" edge="1" parent="1">
          <mxGeometry width="50" height="50" relative="1" as="geometry">
            <mxPoint x="382.21" y="481" as="sourcePoint" />
            <mxPoint x="382.21" y="521" as="targetPoint" />
          </mxGeometry>
        </mxCell>
        <mxCell id="LZZpkKF-DLMGYk2NbYWf-31" value="&lt;b&gt;BiLSTM * 2&amp;nbsp; (128)&lt;/b&gt;" style="rounded=0;whiteSpace=wrap;html=1;fontFamily=Times New Roman;fontSize=14;strokeWidth=2;opacity=80;" vertex="1" parent="1">
          <mxGeometry x="306.75" y="591" width="151.5" height="22" as="geometry" />
        </mxCell>
        <mxCell id="LZZpkKF-DLMGYk2NbYWf-32" value="" style="rounded=0;whiteSpace=wrap;html=1;fontFamily=Times New Roman;fontSize=14;strokeWidth=2;opacity=80;" vertex="1" parent="1">
          <mxGeometry x="336" y="647" width="84" height="21" as="geometry" />
        </mxCell>
        <mxCell id="LZZpkKF-DLMGYk2NbYWf-33" value="" style="ellipse;whiteSpace=wrap;html=1;aspect=fixed;fontFamily=Times New Roman;fontSize=14;" vertex="1" parent="1">
          <mxGeometry x="340" y="651.25" width="12.5" height="12.5" as="geometry" />
        </mxCell>
        <mxCell id="LZZpkKF-DLMGYk2NbYWf-34" value="" style="ellipse;whiteSpace=wrap;html=1;aspect=fixed;fontFamily=Times New Roman;fontSize=14;fillColor=#f5f5f5;strokeColor=#666666;fontColor=#333333;" vertex="1" parent="1">
          <mxGeometry x="356" y="651.25" width="12.5" height="12.5" as="geometry" />
        </mxCell>
        <mxCell id="LZZpkKF-DLMGYk2NbYWf-35" value="" style="ellipse;whiteSpace=wrap;html=1;aspect=fixed;fontFamily=Times New Roman;fontSize=14;fillColor=#eeeeee;strokeColor=#36393d;" vertex="1" parent="1">
          <mxGeometry x="372" y="651.25" width="12.5" height="12.5" as="geometry" />
        </mxCell>
        <mxCell id="LZZpkKF-DLMGYk2NbYWf-36" value="" style="ellipse;whiteSpace=wrap;html=1;aspect=fixed;fontFamily=Times New Roman;fontSize=14;fillColor=#cdcbcb;fontColor=#333333;strokeColor=#666666;" vertex="1" parent="1">
          <mxGeometry x="388" y="651.25" width="12.5" height="12.5" as="geometry" />
        </mxCell>
        <mxCell id="LZZpkKF-DLMGYk2NbYWf-37" value="" style="ellipse;whiteSpace=wrap;html=1;aspect=fixed;fontFamily=Times New Roman;fontSize=14;fillColor=#707070;" vertex="1" parent="1">
          <mxGeometry x="404" y="651.25" width="12.5" height="12.5" as="geometry" />
        </mxCell>
        <mxCell id="LZZpkKF-DLMGYk2NbYWf-39" value="" style="endArrow=classic;html=1;rounded=0;fontFamily=Times New Roman;fontSize=14;opacity=60;strokeWidth=2;" edge="1" parent="1">
          <mxGeometry width="50" height="50" relative="1" as="geometry">
            <mxPoint x="382" y="613" as="sourcePoint" />
            <mxPoint x="382" y="646" as="targetPoint" />
          </mxGeometry>
        </mxCell>
        <mxCell id="LZZpkKF-DLMGYk2NbYWf-45" value="" style="endArrow=classic;html=1;rounded=0;fontFamily=Times New Roman;fontSize=14;strokeWidth=2;opacity=60;" edge="1" parent="1">
          <mxGeometry width="50" height="50" relative="1" as="geometry">
            <mxPoint x="388" y="197" as="sourcePoint" />
            <mxPoint x="388" y="258" as="targetPoint" />
          </mxGeometry>
        </mxCell>
        <mxCell id="LZZpkKF-DLMGYk2NbYWf-46" value="" style="endArrow=classic;html=1;rounded=0;fontFamily=Times New Roman;fontSize=14;strokeWidth=2;opacity=60;" edge="1" parent="1">
          <mxGeometry width="50" height="50" relative="1" as="geometry">
            <mxPoint x="435" y="197" as="sourcePoint" />
            <mxPoint x="510" y="256" as="targetPoint" />
          </mxGeometry>
        </mxCell>
        <mxCell id="LZZpkKF-DLMGYk2NbYWf-47" value="" style="endArrow=classic;html=1;rounded=0;fontFamily=Times New Roman;fontSize=14;strokeWidth=2;opacity=60;" edge="1" parent="1">
          <mxGeometry width="50" height="50" relative="1" as="geometry">
            <mxPoint x="510" y="302" as="sourcePoint" />
            <mxPoint x="510" y="356" as="targetPoint" />
            <Array as="points" />
          </mxGeometry>
        </mxCell>
        <mxCell id="LZZpkKF-DLMGYk2NbYWf-48" value="" style="shape=image;verticalLabelPosition=bottom;labelBackgroundColor=default;verticalAlign=top;imageAspect=0;image=data:image/png,iVBORw0KGgoAAAANSUhEUgAAAh8AAAGrCAIAAADvjGJ4AAAgAElEQVR4Aey9O68sS7AmtNfea+7ln8CIp4QwcMBAwsFC/CkkTDwkPDy8kXC4A2h4znAdLBwkHCSE+AnM2XsRWVH5VWQ8sjLr0d1rregjdWdlxiu/jIyvsrrXPm//7j/8Rz/U6+O36jh2+XGRncb7x1/NZV4kAolAIpAIvCQCP++L6u3t133G03IikAgkAonA6yLw9stjl2SF112xjCwRSAQSgU+BwJvHLtdFfv3x5e39uujSUiKQCCQCicBdCATskseXuwBPu4lAIpAIfAsEAna5bu7XH1+uiy0tJQKJQCKQCFyPwPKQKWaXlz2+5MOx63MhLSYCiUAicCECH2QrZpfrHOXx5Tos01IikAgkAq+PwBuF2GWXlz2+vD62GWEikAgkAt8bgS67XAfNxceXfDh23dKkpUQgEUgErkSg1uc9dsnjy5Wop61EIBFIBL4LAnvsch0OFx9frgssLSUCiUAikAhcjsAAu7zm8aUevi5HJA0mAolAIpAInEdggF3OO0kLiUAikAgkAt8BAXHfP8YuFx1f8uHYd8iunGMikAgkAoTAGLu8JlSCJF8zwIwqEUgEEoFvi8Awu1x0fPm2QOfEE4FEIBH44gi0d/zD7PLFUcnpJQKJQCKQCFyJwAy7vODxpaXKK4FJW4lAIpAIJAInEJhhlxNuUjURSAQSgUTgWyEwyS4veHz5VsuVk00EEoFE4DURME+SJtnlBWdlpvSCMWZIiUAikAh8NwTm2eXc8SX/5OW7ZVjONxFIBL4nAvPs8j1xylknAolAIpAIzCBwiF3OHV9mwhuTzYdjYzilVCKQCCQCtyDgFeFD7HJLdGk0EUgEEoFE4OsgkOzyddYyZ5IIJAKJwOsgcJRd8uHY66xhRpIIJAKJwOshcJRdXm8mGVEikAgkAonAExDwvnShME6wy6sdX54AarpMBBKBRCAR8BE4wS6+wf3et7d7nAb8uR9QSiQCiUAikAhcjcC5Qn/w+PJ29SzSXiKQCCQCicAzEIhv68+xyzPmkj4TgUQgEUgEXh+B0+xy8PhyDzIxi97jL60mAolAIpAI+AicZhff7E5v/mtjOwDlcCKQCCQCnxyBK9jlpY4vn3w9MvxEIBFIBD4NAt3HRVewy0sh0Z3tS0WawSQCiUAi8IURuIhd5o8v+XDsC2dVTi0RSAQSgYvY5bWAzF88v9Z6ZDSJQCLwDRH4ednfNs4fX+6C+3UiuWuGaTcRSAQSgWcjsPc1xDPPLvlw7NnZkf4TgUQgEbgLgUvZJQ8Ndy1T2k0EEoFE4JMhUNjlsodjn2zuGW4ikAgkAonAIQT2HouR0UvPLmRv8viSD8cOLWwqJQKJQCLw6gis7JLHl1dfqIwvEUgEEoFPhcDVZxea/OTx5VPBlcEmAolAIpAIDCGwscuzji/5cGxooVIoEUgEEoEXQWDgSxeKdGOXK8PO48uVaKatRCARSAQ+HwINuzzr+PL5YMuIE4FEIBFIBLoINOzSlZwcnDm+5MOxSXBTPBFIBBKBV0dAs0seX159xTK+RCARSASeiMDYly4UoGaXJ8Z8pevh+V/pNG0lAolAIpAIVAQcdnnK8SUfjtUVyc9EIBFIBL4CAg67fIVp5RwSgUQgEUgEnoqAzy7XHF9mvth/KgjpPBFIBBKBRGAAgZkvHXx2GXByvUg+HLse07SYCCQCicCTEAjZ5Zrjy5NmlW4TgUQgEUgEnotAyC7PDSu9JwKJQCKQCLwWAjOPxSjyHrs8/viSD8deK5kymkQgEUgEjiLQY5ejNlMvEUgEEoFE4LsjsMMujz++fPcFyfknAolAIvAlENhhl8fPMR+OPR7z9JgIJAKJwA4Ck1+6kLV9djl1fMk/edlZsRxOBBKBROBrIrDPLl9z3jmrRCARSAQSgTsRGGKXU8eX+eiveTg2f46bjzQ1EoFEIBFIBHwEhtjFV83eRCARSAQSge+AwKGb9VF2efDx5TusV84xEUgEEoEvjMAouzwYgmsejj046HSXCCQCiUAiUBGYYJc8vlTQ8jMRSAQSgURgB4EJdtmxlMOJQCKQCCQCXw+BQ1+6EAxz7HLk+HL0T17y4djXy9KcUSKQCHwfBObY5fvgkjNNBBKBRCAROIPANLscOb6cCTB1E4FEIBFIBJ6FwNHHYhTvNLs8co75cOyRaKevRCARSAQuROCl2eXCeaapRCARSAQSgUcicIRdHvlwLI8vj8yG9JUIJAKJwFUIHGGXq3ynnUQgEUgEEoHXReDEly40qYPs8sjjy+tCn5ElAolAIpAIBAgcZJfAWtB99E9e2Nzxh2PniDeYTHYnAolAIpAI7CNwnF3y+LKPbkokAolAIvBdETjOLt8VsZx3IpAIJALfAIHTz35OscvDji/HH459gxzIKSYCiUAi8IIInGKXF5xPhpQIJAKJQCLwCgicZZeHHV9eAayMIRFIBBKBRGAQgbPsMujmvFg+HDuPYVpIBBKBRGAIgdNfupCXC9gljy9Dq5VCiUAikAh8JwQuYJchuM79ycuQixRKBBKBRCAReBkErmGXxxxf8uHYy6RNBpIIJAJfF4ErHosROtewy9eFOWeWCCQCiUAicASBZJcjqKVOIpAIJAKJQB+Bnz8+1Tci+XCsv5w5mggkAonAiyCQZ5cXWYgMIxFIBBKBF0Dgoi9daCYLu3yq48sc/NchNec3pROBRCAR+N4IPPDschGH5cOx752xOftEIBH4HAhUdrmo9H+OSWeUiUAikAgkAjcjUNnltJvH/MnL6TDTQCKQCCQCiUCAwKVfJQh2+TzHl3w4FqRGdicCiUAi8CoICHZ5lZAyjkQgEUgEEoHPjQCdAVp2+TzHl88NfEafCCQCicBXR6Bll68+25xfIpAIJAKJgI/ApV+6kAvDLnl88YHP3kQgEUgEEoEJBAy7TOjOiyZ1zWOWGolAIpAIfEYEPHZJDviMK5kxJwKJQCJwGIFLH4vxz3o9djkaX/7Jy1HkUi8RSAQSga+GQMAueXz5agud80kEEoFE4KEIBOzy0BjSWSKQCCQCicBXQyBmly9zfLn0eeJXW/+cTyKQCCQClxZJ/FsqMbsk4olAIpAIJAKJwFEEuuzyZY4vR9FJvUQgEUgEEoFjCHTZ5ZjJvtZFjIXDV99bjiYCiUAikAg8BYE9dpkkg/xR8lNWMZ0mAolAInAQgUu/dJEx7LGLlM12IpAIJAKJQCIQIyCfKg2wy+TxJfabI4lAIpAIJALfBYEBdvkuUOQ8E4FEIBH4Zgjc9liMcBxjlzy+fLOUy+kmAolAInASgTF2Oekk1ROBRCARSAS+OgLySxea6zC75PHlq2dGzi8RSAQSgQsRGGaXC32+PcPphfGnqUQgEUgEvgACd37pQvDMFPqx48vAn7y8fYF1ySkkAolAIpAIdBCYYZeOmRcfupmiX3z2GV4ikAgkAo9H4Huwy+NxTY+JQCKQCHwnBNRX+jT1SXYZezi2D+lVdvY9pUQikAgkAomAQeD+JzqT7GIizI5EIBFIBBKBRMAiMM8uL3PssAcxO73sSQQSgUQgEXgKAvPsclWYL8NSV00o7SQCiUAikAgAgeexC0LIRiKQCCQCicAjEbj6Sxf3SdIt7DLwJy+PBDJ9JQKJQCKQCDwagVvYZXQS+XBsFKmUSwQSgUTgkyFwiF2SFT7ZKme4iUAikAhUBK5+LFbt6s9D7KKN5HUikAgkAonAN0XA/dKFsHg2u+Qx6JsmZE47EUgEvjgCz2aXLw5vTi8RSAQSgW+KQLLLN134nHYikAh8RwQe9aULYfsC7PKYh2P5P5X5jjsp55wIJAJPQ+Audnm9P3m5a6ZPW7p0nAgkAonAsxGIvtKnuI7W3MccOK4F7oFHwmsDT2uJQCKQCHw6BI6yy7UT/YxcdS0CaS0RSAQSgbsReOwd9muwy1FMO4cy3+RjwfVjyN5EIBFIBL4BAp+bXY4sUBLMEdRSJxFIBBIBjUD//v5l2CUfjumFy+tEIBFIBD4xAj/75POJZ9YJPY8vHXByKBFIBL4kAg+vey9zdnnwcj4c6AfPL90lAolAIvBcBAq73HR8mf6Tl3w49txcSO+JQCKQCFyHwImzy2cngzy+XJdGaSkRSAReGoEbyvXusWRll125lwbucHBJMIehS8VEIBH4TAi8PT7YE2eXO4K9gWDvCDNtJgKJQCLwaRB40m30xi55fPk0uZKBJgKJQCLw8ghs7PLyod4W4JOI/bb5pOFEIBFIBCoCz6tvDbu8xPElH47VrMjPRCARSAReE4ERsmjY5fJpTP8o+fIIBg0+j94HA0yxRCARSASmEXhqZdPsMsJI0zO8U+GygJ+6DHcilLYTgUTgWyLw7Jqm2WVuEW56inWT2f25PeFHe/tBpUQikAgkAp8QAYddLjsNfDo4nsZqnw6pDDgRSAReG4E7Dy6DHOGwy2tjltElAolAIpAIdBG4k1q6jptBn10GqamxdO1FHiOuxTOtJQKJQCLwWAR8dnlsDK/k7TU4/5UQyVgSgUTgUyHwMkUsZJfnH18+1YJmsIlAIpAIPB+Bl6EWgiJkl6tg+jR/8nLVhNNOIpAIJAJfF4Hxg0ePXcatfF0kc2aJQCKQCHwSBF7p4EKQ9dhlCNGv9/X7i63Q0CqkUCKQCHxzBF6vcO2wSx5fvnnG5vQTgUQgETiGwA67HDOaWolAIpAIJAKPQ+D1Di4092SXxyVAekoEEoFE4HoEHkgtU0+zkl28tX7gannusy8RSAQSgU+PwFdglyk6/fQrlhNIBBKBRAAIvPCt8CPYJf/kBZmQjUQgEUgELkPghamF5vgIdrkMyjSUCCQCiUAi8CQEZp8SXcEuX+9PXmjxXvum4EnZlW4TgUTgZRB4+Rq1zy6zfHUZ9l+StC5DJw0lAolAIvDSCOyzy0uHn8ElAolAIvANEXj5gwutSbLLN0zMnHIikAh8ZgQ+A7UQvskucZJ9kiWMJ5AjiUAikAhcg8CBr0iSXa6BPq0kAolAIvAIBD7PXe+D2CX/5OURaZc+EoFE4Gsj8HmohdbhInb5qr/v+lRr+bW3Vc4uEUgEPhcCF7HL55p0RpsIJAKJwKdD4Hk3uwe+dCF0h9jlmOlPt3YZcCKQCCQCL4rA86jlMCBD7HLYeiomAolAIpAIfE8Evgi73Hi6+oS3DN8zlXPWicCXReBzVqEvwi5fNqtyYolAIvDNEfic1EKLluzyzTM3p58IJAKJQA+Bw0+GHscu+ScvvQXMsUQgEUgELAKf9uBCU7mOXe74k5c7bNr12+35zAu8O7kUSAQSgRdF4JNXnuvY5UXXJ8NKBBKBRCAReAICo+xy+NHbE+aULhOBRCAR+OwIfPKDC8E/yi6ffaUy/kQgEUgEPg0CL0MtZ84VyS5j+fYyiz0WbkolAolAIvBkBJJdnrwA6T4RSAQSgQaBr3Iv+1B2yR8lNzmUF4lAIpAIKAS+CrXQtB7KLgrGvEwEEoFEIBF4WQTOfOlCk/r548K/KbnQ1Avi/YXuKV4Q3QwpEUgEfnytIjNxdjnJY5k6iUAikAgkAt8HgYVdvsSZI8nv+2RtzjQR+IIIfK2DCz0Vmzi7fMHlzCklAolAIvAKCHwxalkgrezyJY4vtyfJV8yA20FLB4lAIvAJETj/NKiyy8tOPmnvZZcmA0sEEoFLEPiit62CXR5Sx/NPXi7JxjSSCCQCXwSBL0ottDqCXb7IWt08ja+bCjcDl+YTgUTg2yCwnFWuZpeHHIC+zRLlRBOBROBLI/Cqd6vnv3ShZZtjl0tcfulkycklAolAIjCAAPHKq1LLQPRDInPsMmQyhRKBRCARSAQ6CHx1XuGpt+ySz7U6CYGh75EZmG42EoFE4DIEvsGRBf+62PtlqKWhRCARSAQSgQiB73dXmuwS5UL2JwKJQCJwBQKfjVeu+n79Cezy9vb28fFxxaKljUQgEUgEXhiBz8Yr10LZfu9yre3Q2ls4cm7gKsrdj+J7J80+PimRCHxzBKhEfPsqccPZhX4a8PH7m6dWTj8RSAS+IwLfnlHwlT6t/vTZ5XHng++YmznnRCAR+JwI5GHFrJthl4f8KDn/tTGzENmRCCQCnxOBr8UrF54fDLu84Po+hPCm551H4GnIUiER+FoIfC1euXxtbvje5fIY02AikAgkAi+FQN5cusvRngSSXVyQsjMRSAQSAYNAkoqBpNOR7NIBJ4cSgUQgEVgQ+B68cuGXLoTaPd+7tOcjNz2/whf73yPh3OXLzkTguyBA2zx3+qHFzrPLIdhSKRFIBL48Akkq55b4yNnl2tPTufhTOxFIBBKBqxHI88oBRM0jK+/sQkL5x/aD4FIWfvw1KJtiiUAi8NII5GHl0uXx2OVSB2ksEUgEEoFXRyB55cePyx9KJbu8etpnfIlAInAjAskrt4H71diF6PcjH+vdli5pOBH4CggkozxkFd/pl8EfH3+0L/X9jKnX6gzlFPQ9C+TR/VGyE0wR/aUjpGsTFcuo2IpgIOnYPNCVmXoAtFRJBBKBZyBgy+NcFG4pDkyUs4tb5SFfyn3f4sfvfsSluPctbM7I1NDP2Pajamx65ASBbCQCiUAi8A0RGCzLHjIjhZr+UCiuvMstf9/KfpXf4x5E/mQSQhzZSAQiBEYOwZ0NFZnt94847Vv4FKOX4/YpZv0aQfaL/H6MwdrRkzGfXfZr/SXcg8DvICE6lsF+Nr4WAv4T1LvnGGyWe90+xem9U3qQ9bNF80Fhvpibc/kmCSU4u+zV+ku4B6DuH4A20Z2ncBCkxn6QUjrbZxB4+P11Fo4zy5W6KwLnKulBGHmzPMX1ZMSSKiZVy5flxC7me45HftFCIRcmMzF4U5kgodWsfyzzbN/SV+jtotfgMl/ocS7wz7BV5maU0olA+U764hpy+Jb3ZCTk95SFQzg0T8bW2tSv9ae5RybtBNbDJET253hIBnRVe31seHFq7kZ3KoF2radAIpAInEPgQTtUkoGtRXJ0fjqDhwEyLJ6M7ZHbPvfwL5vHQ9/zKCf+IS/67Rke6luaHd2+DBgHYdZHyn83BK47Ab8ucrlf7lubLrbjVOEH2DVe/t6F1PZv9veYYDmFdB9wrdxTZXbPQHI2e94hO3EYgs6ZRrvzzy7VmUhS98shsN6sdDfw15h0bpyXWMcTmeaeyd5//Pz148/ONx/Xcg/FsU9FEuxxHhomIWl+tr2e4VjtxHrM+k35JyPQ3kk8IJjvVXNzKz0gpcZcuFQxprpI1aVc/iUYIpjo9ad8L93P8gPcMx79BA+Nk1A02U6/qCzjwXfs5dDjEWhuCw64r3vmgGqqPBeB3LPH8T+c9m8/vd+MIRCq1x3iIbFLuAfubGP4LDJBQtZL1EPTx+swxLCQjQsREGQ/bjVLzDhWX1/yW+1o7JeTs+7/4Mskzfq9i+nnb2LqdyR2mHqu4B7XMHfuH4mgPExC0Igaze3tJJSRzey/EgGm/JOb5MqA7reF0nCJqw501zoajLYTz6CFY2LP2t3ynrUf+VURkkcX5BP2B2/UxG/G5FRLve5Ry1L6ewL73CPd2fbeV0HQmCAh6MhGu6MGUZMGsk0INKx8KyLdtLzV83OMR6XhjmjcGnSHI2XzSWv6+M1+yyOWCqadzror9+C1itXk2GecNubJ2Mi94Xnu6YdNMfSfyEF9mISgQY1CSHjF0EAkGyEClZvPJmjo4PsODJaGrwHQ0/Lnkdv/ukcsg4t+BNVzgKgzCf1mTBxB/tAZSlzaSexyz1JulA9rptOzfyqC8jgJkcryFRGrngkPzr95Y2Xoc7n4zTEMp79uovi3NqHmpx14aiI9oCCcfcTyjIU9Dks9G9D3Luu/9Pjx8dEwjZ3PCPeczJK9UxGCmiAh0pniIfj4dA3BoHfHfjzz7o7sHvsrm95jXFs9uYm0uc9x/bUz6gVmR3+PfvQf9a1sMZtJ9cnYxx/QjGviAu5x7cpO4oDBfTVMQmR+jodkPJ+ozWfKo0nwiSb66FArYT+1OpyoC8N4PZQ+l6ieACndSfefzQzD9ckESxoLajlTKGYArP/n447OUrnOcs/uauwejGBhnIRIZYaH4OGqxuU71m7I1UVn+a6azKvZYUK9O6oz+/CS2FRduMSmZ8Smlid1dd/j4f1uO6V/33kOjd2cab93scmzW/QHuMdaVT37ByMo7MYDSWpM8ZBUPN8+/f3TYAi7Czxo5xOJfRdC7deFT7Rg/VDPFbi+bXf06Vumc9N5YWyz2+SU6+CZEz0ZEycmtRrXfBPT/ZkAedx7KCeD+pC/QZADtj3FQ1b9TM8TWe1M2K+v+yjOfjoSpTQ8vOw+a9an6tqxoINqeMzYhNblCRxN5Mwzm8jmyDzbpI3PLqU6x8RDnqa4J2KFKQ4Y5qGJw9AIZFMyUzOasvydhflG/kzefxb0Li9An2LiD17Ztgg+CKFH3nRehedhoJaC751diDboFfEBDVEBpdcs91j5XX4qbuprvGoPk1A1fc1noTR6dXC7xs/rWeF8uDWuw1l+a1SXG39kAZLBL5QmO25vq/L3+PV98D4dL183QX/+NDyPWP3NGKZUgjh9ZCFrrhEZX4G76wghUWOch561ik+iNAnS49vfiFAfwKC0frbI0n58wEvV+gd4tJOVxeEhAfR/qXRhCM98lELT4NRVqXUC7XHc3t9+biX+48+Hk98S5vPcQ9aIVMbZgtEZ5KEps3JeZ9ru4p0x+Cl0l6o3nmefYk4qyJU7uffEblRmRy+/fF49ENIwUVXNHV2bYbmnbpPBm78QnJFZdgGsT8aWpzqSaazlC7gHRgfZguTHCYN247hZRHKsscC1qj5wkxwL9mKtr1H1Bs4Ep3bdOdCffLd7Lvhx7Yci7NZBqhj3FY1SkfZ+0zQO1qzkgacpZ6L1yiB9q//2oxxZthOMM4tLuMexu9e1e1SCgXESgspsg6sqa/XhmrV8rbxkPrJ8Yahs2Uuja2ewb02uxb60J3FmI3n2Lut76t3uZbMYN/TIhXhw6kbuVPZGYuMYKkm2fxLYY1G11Yb/72FdarmCe9T0Ry73j0qwMk5CUBlsyEp9DO5BR5eIrVnVXc0zjtrUOWPpuO7rMNzxOcSatIIni0JsuzcycJLrqU+N2Qk+bGe9SAKfmW9/Cnfsjr7HaOmXOZpv9ZU0pZ34YkYNlstd7nF0Bro+PvqP6WBigoSg02/InXYM2b79O0bvyKo74jxj827uPBPbed1oBXnW5+33LdiK35c/OWrL68M2mnV9ci5T6uXu4babP4okMs7ZxaFGMiMTmURveTIW2R35kr/PPZHlfv84Yw2TUMdh4Sf5evBOk65n2yDCMxkz6/TB8tgYk5l9S5j31Xp3BWnurzDrO6BU833kNJXrO2ZnbUZ3D1by2p7OPdlJzAdgrN/qqymtWMQ0yxX5jkK8e1pCqOMkBBU0ULPKr0DjaUL+xRorI96B/+vMlLlzIIlvDxnZcnJDjgfaKQrjRl5cUoH5yIV+8MahTH7k7LDulLcKZAypxpnwYjA9dqGY+s5K0PdU5EIYY7+yGCch4CjPKP0JQuVMAyXpjJFA96UYUR/+gpinuwczYdrumAJzG8s+IFtkUONFQWpd2z5wSusXMltVHoOql0WP3D7XP7ofWegzd2YeYrs+XUjNk7HdA4HNEuV5V0DJ47JsqjHSGiehzfjeF0iQvKSxC+MlXp5uhJbscx7+IuQ2pjy0xyKzo/1nisKoDyO3LKLu7VOFlh64Zi5RjHI/yG7VK+GqSAZmcETkikf3U34vfKoRQtcPSAArzi6cZP36vls0yYibRv2AaBSKu5IkMHa82SwdYKNNeb514Fw17+TJGgQpvUQmPToetyaeDuLgjjrtlwz4N7nyCHWFF8fGIxfR0MkjAI8m2K91DlIzXZ0NMlXrZnxSFQ3xpP06duvuO4ww9KWpRBdnlV12J8ybub8elnv68ojMKmLINnZDlSojYUv5k+01pWbZ76TXx6pzvRtc2TtC6+zbO9w9wOaSpbYu+HzzgHjudGGn+Yh7lChdDdtdM/XO/eVUreNoouBlrP1NUWqmkJ6lCqE6+nhpUXn/+Pn2tjvh3YLeKeK7MyHdEfh4hruhSiB2w5bC59tTEznv7vEW1gx+Hnc+ndjuwNxN6WVDOYX4jgAeb9PWhPEKcDhal0ju8FsWNNgjHdY5PC9WjCay7lnJLa2nSLGV8q+iaVbp8teURDD10vm8gHtsMsHPFAFMlW9308Lv5Y2piVzu/W6DS7GbuAm4PJ51kwSb9nJ3rkHmNnfoTKfdfQ9OXRs8L7ftP9xjK4Cd9V6pOux8VbQez1oM9CNHZVkfmMCzt2KHY4vmuzwZCzCi7uXR+lnuqeatnX3eqrrlc6p8k3A8Z2n1mvbTy4GcxvnSIGsBW5M90tfdbczlkaupJsXERp2Ht58y2LmcrQgdU4NDmJ2Uv2O57QoqPK2ADOmS9h3zGgmM0/gBE+RgeE0VvCNxQuZYqAZe85sxOCgVExdeY4B7tFpr0PKNlq/XN/JQdXHw88F504kSZcKscUdpf+haa/v+qsRzWY2ieDyxlR3n3dvedGZipI/VkbpKc59qdre6jvI26p+byYw0JdIjnZK7a4GdDV7I12/1FVy7Ie5yjzIoL3ny4xY+dp7dSdtzPCQ1D7QfnDdRhBQGva5NqcjXA/qZJkWOPsDn6oKR5ItHBhCt4AqFRzmPA+VSTypLbwU5Mq5iuHR+2lipcu09tZa47pqzKHLXHx2JIrIc6f5889iF4ugbIoHzKzRoYZyEaJIzPBRhMtj/UBqLYjqfMZHlqX4OY0qlIzyYGB0LU0NcwVmln/ZTZseFo+12yS4bD+MxkhZh23NhJG4u3epRBv+wFVzvQgIa4+2pZq0uZdgjbRdYo0hPxkQf/3/w+o6jzSDMXNacWp4pHjoT4oFHgmfcebqF2+jVXylP8eI+N3Ev9uGZY7/eyHTf2D6ZNsEbQ88AACAASURBVDuiEC3is1DlmC/ElgzaFLU9ty6BdedGNbJe4zKdFRyE1w3bDYAMRgBGCabsROpKzF7uBfn+USXeSpTWgOgZ4R4hfrZJ8dTY9k11IN5XHpZYV2tY/g7BF+A2mtbT6I0WurgPbtPuAPwmm1HGUo49bHYMpprg5d6tQVvOrIyK6vBlYHn8S99Zz72nGgR4EM+sl03eNcgra3He1IKWay2Q3boDrXp2+fMDNLPpiNY+9wjhC5rEZEHEjvE71gxu5A48sFqwc7LBxEZGnl5Xn0RvT+MzXjiZBieXktVtekcVAUt/iV9pxMYgRy9s241jXdueiwIIieSOrRQ/nO+xzkUzXc1cUg/nl8PivHzvQtHsnVr63HMtOHNMNsVDI4GqOjKP8rbGI+4GZez+HFS8UOxZR7cn8Rkht1Jaad1RisTauBWBU/EVll5EerBpAWx7bG066MhVc1fvcmDLudN1/6CvhG+6A5temgrC8v+mbJe5gWfN76ZPX/ATM+rtU5RWC673TlFSbY6HpKZqYwrU30FDaXUu3WLRkX/xoaeUOdyz12R9HEgLn5G76X01H2JYEb5YChEy7c66C9soW1wuaUOaX72q0dkgj7kn696BbTdJJ1M6wrbC0HzSb8Y+YoU3iriP/oqpsNmXF4J+kwyOU9QMD1l3hZnwGncKlU7j8uNUx9fdQ4zSyWWdDXLNqzg1Zw2OyIPMSPgxnoOKEPLNyCxOyshNcdJUgVHjqBlFj593uVi4lUgQI2ZHoKGNUW7QkBuMEjt52T0zkW0NO9wdxn9sUr2/puwQD4XX4Z6+IqamGh2DSrJclmVzune6xBnljmd9K2MdCGwn7mcMM1bRtrkpIq5uj3TKHmk6YxvmsnlHFSF+cH+Z68WQvJ/dLF+NvK5rtpzdAXs0i6h/m/+hVmSWUisaOuTHUeLsjTCMcswaiixYSdmzNzv/7FIKfd/fH/q3nqUf0+6rG/EfuwaFyhwPseK6DMLK5c1zZ6lLwmkOZCctPpgjZ8kMrHBymns75KR5Rz2qCHx4sttKnLEda1beCnkWdN23Wpf02PBsZbhjCSKbD8vqzgOMKHWjmN2FYCORSpRjrinVGdlUYvIyUKF/I1lK0deY5bLPHPvcs5jsG5FeBw2uKjM8xCpH2EjGN9Km5WyRHFG6UmZdOLubr3Ti2rqG0sbRm+UhN+hjnVFd6FuTe48syEsolvzx1m789hOmbMMzbKXu6rHzsgjYnvPRBBl1x0MLGezOA4wO60gru+0IMU7RaHTXrBKYsmMAb/9W/+NDkY32NcA9SqVvkISJz+7iIQ5lno3UFPqXhbroNbUMfYuzo5xPZmlnzRyRfyyl7ezbIxMY02E+I9nzq2wtROVgXdbnMsMYPrtSdta254YE9onkBkcbAPEDjNuzl7PUAsvBUTpFQ1v0cWsGNMC+nV3KqaXvfo97wtC6Zj9+eud2z9YUD7GBuVOR53Sn72bq6nhfWY0kuvB2LJwaejClPZbGGJntTDazteZQjTbdyVowF0SV5jWtV6c+bU7anhZVlKRTfpVy62IbtMFsYydaBGDkMWadE/421ZKrsesiJ6ccSW72wtbEMv38sX7vQqWqf8jY554wnnXAtT9hdp7bDrDR3iSa8dupq/EmLpYH9OMHPqF5QXNlNZmsF1gNTKDendgPgem4m+8By/PhG88N4Z0se7/T9TpzYAskrnVqrbWLeDG8tFbuctkwlvlevn3Kvgh8HfwJEtal3+jeePVYZ8XBRa3vcvSPT5a/d+l+0cLVxOWGvRD0uFpRsjxodoKE2OeycwaN6yjHru+mLjeKtbLbB9mu9OWdD2S1dabRdr18amQQ1bYtgne4+hHcyfq1oJStc1FUvmysPABbg6RmFCPQRDh7EcxIlZ3N6lX7qLsvSiYHgW2RHGtxxkYYdlnHdxiZ8qWX3u7UtidjroXLaygq/rjlcRLiKUxTkTvzTuf91GWdl0l1bwKsylU9a6Enc1ftxn5k3b3aV50d3aZGmt19Mms5lI8qQlALCt+cpBYK5UDVCCcwN7BPJ5fCPkUkofDMFEsKRfvizkwufiPoohwbn1dkObAQIbn9K5ZWkTIbZGBHT/YMWh4nIY6HQB+0fCz+26nLhvUMMlvBfCylrbU+2qsWmcM9y7Yn7WhXHDbcV/QrQlQLAr7pu3jFUcVtpnJdvApe/kQuTtaKTnUqa+1FUhaopl8o0F/FLmn5OdY32B2NoPOV2imHZ5cFuPN3TX4Mg72z9NZZ7EGPfTFauZPp2LcvRwuN8cvsxjpw5+djKY0nO57HZQudebV7YNQSisKogpazEwxrAeGvirI2dsM1Uu6kbRW5SWCLw8E668XpGF/Eju9cE//qNr757hSisuLH0g+TjdRj1sF+icCB7V4j8mt04OX9j2EQ/g1XZzFQ+DoyxuN0x7JCJrjYzCwVxZackdnyRyawoo65ga5bse34Xxc32lEdzWNDkzR2YCGOxQWtbR2Hdxd0e42gFqzu7safD0wqPsUKanT80gSPcrPZMGA6Mpv0XCvcOyawObtKOrJ2iHWU7anLNWcMpKuR6HetkXzX99Qy6bML7V7LN9IdcY9avL681B1vWy99XQpbP+HtK8yMHuCtJZ4ZHy8gyzmqFnckLq74I5KOTLRFregkD1kDUz2Y1NR2GnRRoHb3dlQIBu16YmvpUUPjsCvFsUsHNDNfJXMg8XqxBBO82EsbwZozrut7spc9KiQR1A7rVLlIvY77nyNINmeX3ZpOk3G5ZMSTH6PXG3nxZEvfbtiR4kg/BTPLWwfYaCSSERnOthFJK3MgyQ4TkvXe6Vkn5W7ajtqxoXpTf21KIxaei4U6LAQ3PI5DMPc29uiEvF8DcpAYrnGL/FUg0Aq6Hsl+WfQgyFPeu4ekAu/Eo581kGgKYZzdedHZpTzDfltIw2UO2N0t4n112Ok3dr0odVq5S/xKswska8cU3LV2zK+qdD/fJj5jpalo5/1sGnWmW8/lrbXgXlWDuvHxdIpId7d0bQwMBuWAvLuFoCBgavSAm1cRsZPS+XkR2trsAoD1zri4wichi1aQzHZY57DTNV0j9II0m3YX2fcMuaiWs8tS0Nfy5CkOcQ8rjv/hfeRoiipmqch1yp1bfaHfdBxihwuD6cSphjjs2dOVMjJ++Rgaq5Maj+uIJNiLlN29ccRooBOWg+CByWMQkMFKNGT/VNsWdA2sKVhaYMqfELauaTAyfu1+6TyroHV0AxOBzzV5maJ5hWk256SRjnw1QvVCTbb8NWW/mO5yT7W8fvatKWF5OeuIzluHfbFf8ojXFIjQQoPW9WQwMDXY4OBPhj3oi8RqvTtEvMNumL1undS6Aw89NxieRyMY3b2WSEy1LZpX3Xs2UWwXQGDrug4NZ+3aOVoBVZJkVONta5Z1IyKJ5Mc9kmRnU9yRyeQuwmqIdZa5HZ545NpFjL2sT8ZciQW+gxV89hAzSxWzVIQJyvlcwgcPrvLLopTZXBI8YOk0HjPBzkZ1Y8Mpyh3tdB7bXW5F7niRQ3ZbRrVg9dKWY2lqul0fmUrFYwhICzvtNn7rzgJiZXZceMNTRHJ++ywlyItjYZ0omNm8ZTt9rjrMOnYh/PmI3qmVar7VF0ZK83AFZztT6/eTa5iKILicpSKeCxubpb0ghLX7QCR9g/3RxxR6xMDFbmodoTvemJ0URxXt3nG/I5KoBVObqm/ZrQU7fNO32BltC31H8MIhi5WtYp7MBcdia5bmFSWwKzyIAy1iZHYpm76ZZemPTDPK9g7r1G3iR2J7Z9GIQpKW/bML3+BH8En93fZINZ+q0cviiUdauxGUWwme0IDojMiBSGbMb7KI/pIV2ezGrdmKH1vqjfAGGJ/UY6KiiDkwaoxsod4M27GoFixFpxVdrqJHao7oc7toO7Y18wCdzFa3aMZuOkXGXeHIMvf3k5CWMrK5lIu+7YlRTtEoPynToinv+ohsuop9L87/m3LJ6bny7TpGp001DFFjyt0BnlgW9crplJiXDIrSSM7uZLum8sXxd6J6wNRoxbkW9VNTBsl76W7AGW3yOx6YDLLfXiikrcEl+cvKWne1dvRNXjZKK3Lq9eZ8H2AnZcuWlZkKw82HyKYrDHcjN8Ek3Kk/davCZNOgBe0H0Eh3L3YdkbaFumvSH4yQdKXd2emzC8HXJwPX9G5ntHjj7ngDRHaiADrZEKns9tPqzoaxa9MKUOTU6a6ZFb6kp2btXKXhOKcCoAQb91GjmvIwJ8ylnHRuQjuagss3FMaZG8/dmWOyUvKSLW+Lka1xSuYk4MoaZhSZPb9tIwudOhOtPqKdanRYqu+oJNvRf4shwtNGrlzQ2WXd6cwqEXzFEAnqey9rv9cDXyxEHnvuhCVavAMbgGY2aF+42ml20mhHc3i4Zsl4BR42HQgyQ4znEJu5NU4OiRzNRhVMUXdz8NyrtoQWPXHNpdxOoUKnTbO8LcpabuyaD0ZK9r7JkiMbuXJnoVACKtrdS2uQVdyNHwnveukL0Gq67kjrwnIR5QzHNss6B6CYWim2/77+Y3nlt269claq+0ItfbH+MpRR8OeeR5gaJyGoUIPW9QAhSQu2fQddSS/Hqry0MNuuKdtbemvz1jiPhWSDdHs4cho6sLtcg53Opeg441Eh6Mg7Vga6bK0fUDorYmuQgnpXYDaCqLIrv2w2Ep51CnnKKNcRCSwLOrezYFY2+tut7hepsbajmxspapdDjrrtaL5WuJxdShlG0bci1KOYoC/sWrCdg0aUa2vH6zlGSJ6ltY8XeIquumTtuzqZ+mGa+95K73iisI2ayhfsGRtUfxdZ+fEeDpvkjyF8AFjyZbGt6OnAoyoQyWv9G64ppAN1hwNRE7d2lABpHVsXzNsa7Nh0hWFqvFFXx9kL/UxGNrq+VHgkHIGz68Ui73pEp3KNfrcRRSWFy19T9o8jEff0taSPw+3I9Y7BQ4TUsXmAq2jhp6io431kiJlsZL1HrLky/VR2VcY7OxvVNcLBuENu59S2gQVUgUuApZjdMJbyAZ9bIzribBIXtTBNaW+qMKl5WV0lQI4spFZGxtNvW2ssH9mM5Pte5Gi0miSzLKhDOTTEGRBFJe2jHQlf6wXuuDGFTxQhmXovv9nqvJajTTje1w3Vxgb6rj0ba0UfPBV5Fpy+ea46wEaO37EuztdbmexW6prdb1wKp7J/DMhNikOi68622aQHWlHM0dyr/IDpSRE+JCmlS6apGMXatEumZKyAirN/qaxBODJ7ZsvQjojM0ppGkXT4ANGONKK0Id2aOd2SPuKjykRzqePbpwtI/d5lE6st/l8JjfDHtdWc/Zd/JGMSo3k2qlP1P49w1QLaA051FDGH5y6qP5/5Xs7jM/sw8om1HY+/s6kiL1P9vDNJZTykEfsUtrtF3Vpz4RwxHRmk4gA5dLJt52hhHJEZCcPaYS3rce33fosUCe8GQGsU7YhjrLPrEQJ98ogyjdSRDBF0cOE2prCSLoKzC+E3xRmoFm50s52z3sn+ATbqRzXPVSXppkDrBxCNMuvvPc+MtAf776MuLqDR/nTD4+SaSnHXjtvJ8dCQ3BWu5GxnVAvYo3VH8u4cEeFUANb+lPoBYRu8jUHJWIFBv8oOtNy8ioXn7l87m6Kf1R3WQeT9RpQzrBVlGo+SrotzBEsnEteOK8/Gt18kQ6iAOM8WV92wH/F+eVk/wFXzbATABxuc3LcT2G3Hr87mjBDob9pIa6QfCX5gjw3ZD7a0SyFR7ehXjZEwjsn41cjYKlu+PRbY6qPg3RUwTsKOa4hk/HYwfkJOia2miaAvSeAOOUWZwwGM549dF0zBNqLJWkl6MiYIfHFyiiekNettt6ecOkU8u/L8gGhSpWeVc3Y858gWHyYujMHGt0Q1i4w10+85yF71LNU3TqPj8a+R3PCQCkG6tQmjUWN8ke0OjAoB7RgrTAGQ/NSej2Lu97v71Y3HtWMjtLpKxgocWwtrhyMM0yzY1KG8mHBJyEBd/5621YqCFFK9JmdAhA9lY2Q/Sraes2UsMugqRoFBWDwZKwjOVXZYaRrjW7BRWy6iJbSS3DPPRpEl6i85NBt8Aa1j8vTQA6iLYlzSZGSbyfkcZCNpwrZvODmd5yqU+QUnG/ROD+eU3bdRCeBdaOV33OwNYxZSUJV+OTTYtnEqm1bAwmhlRryHGRtsyVB+z1mkeJh1lENrn5M2goWX0sJIZqNkUx77l67lSCUKkuQru5C92cIaeeP+A9ZmYyD583QotoJd470pXg0a/GF5g30CwbONY+y1hDcLVz/Uaa664cwkIwQnUWdn/0gVt02FAIspBWh/uGZJXqSk1Jhr253hupszGkirgK0ji4Anc+jWNtggfnIeKErBlPs3ZGXJg8A6Zx3pyo+f74DjhIySTVqeattl6qjbmJcnY5QdF+IO/zbBMWQbszHQ+h2LWWX6VJAIe9lPFk2MH26spejY1Ka8Mg7RHohMHWOjyBr3L5GMg7lCNBt5PwaMVtIajweqqsFx2v3J7KHSkHR5zSN5ZXz3UlX8XfmTAipsOzslQO40wkcXVNvhmUQ76KiXBh9Kksh+nMwX5G33u58CaVDN1A1LJNbMUVz4CAuBpikQLn9N2TsB0P1E+8VdY2jvYjCsgnuAi+9hlorICvI9Sgvfk9c7G61nw+m7iLHWJHYcrPt5FZjFgQEUqeN5mOyb5aolhsGkmgplA+2qCQaFgBy5ezu666RVcuWnZjclrCpRpKuiwvaCvBKgfmfhJtF2LJDdKJMj45E8Qu83yvYPJLqs4wcfWFLda366fpdNFBlnRbsWbD/SUt63SzeAbbhpkXHnN2MQKZFd8m+L9ZeTougLIKClUaKaoiLSOsBGrdPtqmBy6Ai/mTAtskmv2UkZM/yj2l0wdwWUYU7QK2fN8y1TVq7iy1keii01IzWSWUwaI+3FCpedWlAFWN7u/+iI03o7e2Vz2UYS+ajgreNW0UG1hcURiJyh30ZMQ61ZyEZJe8TvYrQslhsAjdJQFEaHdbZYg9aCchRwiafj1GX0wE9ox8hHwRhBfO9iR8iGxFG2rfBeT2NKCPdWS4htTRXVNhC2lgW4gg/4WcM5HHSUS+qE+aqlg2s2QoPn+Ul5uOg4BatlLeg1hSGrRFsIpqcazFWzkYy4CPJzSUJPf/KI45kY7XMPJcidUStC7gCdkLYuBVPJQPpRJgR2tDuO/8BO6e6FXh0jiKOYBZhOs39HtaycP7uyww46jQw64VFXgDmE/bOLC9acY3gQDZWOy9OAibrvRiXMe00Keg8CT033Las1EWrRZzbSltrrk7FxbThppI1ovWLLBzaha406u5vTKhXA+XXV7GCQzJ7Z7TZW2WOjXfzaJFwnaCMJjjjSyW57Q0+Iqt0nRo437bwstlrGQmRB6EdkLSzy2hEbiXI4MOJ7pkWM7MSJva7ClCO4Lx5x0TZOsE5rqHs1HnYUJ/1mTOVcPY+HlVTJdwN0BpEBBP2UqVkqIt9ldccxcoKtXRTqpJ3iOkrHavXUJ1PXZFRDHilyel1imU2x13E04u06FH8rVBaCX4dnBAvxLmp9iisqBK5fL6PWUK0X2ot1EsJ0bXKtqVf8OZuurfbklQlYe7cIGBUfpTgQ7YIloxyzAbB81K/8UgJEkjQUOY3/WIIX2p8CVy0KoOdRxVcvd1knslkNOJ92pRyh2mXsN2cXmvZIxY9wqU52Pkmd/9uRE8ODgQkN/v+7hBwpJTtt8ltGDWodlTK0zG9H5ujwGlKU00fNFr1jjIXia13P41ZsXDI1not9DmOD9HpWkHlodhasxbDYzRmVgCBnSiQdaiFf1oU3o4k+j64adeORYm8E6EL1GBUtcGCl3DxRfhFW1O8agRY1KJEi3bI0ZuKsS0OR5Zh1qqpvs1eLomRji27K2RVh4eg9mqmRl8mwsQtFLweMlu6YElbK47qM6bg8OyoziVZXhRJfHjwtkcHhlYideyNLDs1C4RnSfQxyuB+0eL0+xkZVu/nk7TGOG8s3JtqLY6t/jpMQQcHTzoVjtrva3fxka5G/Y7mbOHGBho0QQ7XhRKXma40oAZdOplbNGFyji/o9485E6hx3NsXlrFP9Op9LWkah+snGVqKUUz4ixJSYu2RGZuv4Sb8ZW0A/UEnJyvkKvoXitY5FRXBHK+E58fuKCS8dfeml91i0HYM8VLKntnaFpwUOlbA1pEl8/NhmKYrRGN4PvlPVC4TPzygoBAUxN2bqt4WYwiPKceVV5OOXmKNQObVNVHh2FkrArU2DgBtT6ySifs/s7GQj+V7y95M5ygGxIk6zZIh/mul/lxmmnOOjdEXz9cWjkFrp5e9dzvBEtMCtmyNXNN2xOUjjl5R4Wpg5rEspOBKtjNy2aS7UORuJtWN7Subxa3b5FsVLQlpjGF/i/ta1k9ztOQyCa5mt2ekEi7hO3+K/2nF9jHW6j7asozFjPSnFKMaFkycKH6MSuosklcFF3/HLdiMjoVczQKYDI2VBvWCKiWOpy5nguouSjeMNUs5MJuiIZmHF3diEWP2XYETXgWaE+AFTrFKWai90xzjFMQ6No7/+z+OmpsNlYkrF89z0rTbPzaWxWC8OMxaHdGRRquv1kzfGDGuurq9Cg7c6RXMgwdRccBmlK/W7YQcP38tMp6KqYCKQ0lBFvxm79MKE6uwCO32lpS47AVpTi7DjlPoDs75wx6kY6q0O2Q08Fq0gcmG7bfbZqJMknA+z7lrn61UwHVc2Qnv73sVXG++diqZvNl6qjl5v7Ttqcoj8Ti7MJUclGUKZxUzllbr99mp5coJk8zAhqXg4gCgRlfB6eR0aq3eyO49ACQactEbWftjk530e9dsYgvvNLezW4Xpl7bti450cdiRv3Dkl1U5NaalL8mVVggAcdyRpDS7qvvDR5zSdnV7WKIhh9gc+63JHgJxkHUY1CjXAPJyalTdhX3N2gaN+ckKs0yhzn53/4jVKpo4vOdRLESkn2+TSACrHp9qXFPFOMTqAD1s7P8fZqW2zmM0EhbhIxwPTJ2NbJFMLTVXAjTwqQ9Tv2g+OOGqWxy63qUl9N2wh4MBoI1dG1CVZMyqOWeF0a1pTy1ik7qZuJLx5aVudXdBP7KIYBNx6qFcUWSC/LpbBbdXssA5vAdes21lj0Z+Ray1XrjELOrt442f6poJWjgq+qmvnsng745HMLy6ByI6/ZXiN8qRf9lQn7O6EkWBYpp/o43ZWa/OYuC4YqPGpXTKLLYcOLxAWZdLC6tpuxWj/syPrhfutHRfl3U723opNJXyjaqOy8aseo+J4VyqNy+3CUVwGoxxz5d3OzYdo0YJGwmXAzItVO2m8ZohwsTUjBLoxFPUgjN7PqTevsbqUqe0IjTouPunfGdOlOUp3oTXSjHDv6JYlifCN1Aru0dhQf3F4xGnwK44hn6vQGvqsd+tigeAA4NYS9XQ2hiuPTnclxnOR1cdnwXHCu2yMO5VaTfzHFqVko5MYxbK7/92EP7kB3f3gepeTn23baaoe49FBRqmIe95+OFGSOC5im5ER6ZpyzLVJMmXAxM+6ZcBMfx2KDUq/aJOp0nYdLUOdGIpiEEYZMq/IlBFcOtyQjGjzt/qqvkcYGSNBx1gEq3K8JIH1pQ5OubCGyOkkORWHJ51SGN3MsGFGPb3ki3Si/grE7KKjys9lpwiDZzGuvsrP7BzhTTfPx08Ww4UIFnqVt1Nw+UaHXK/rktXr5fN8cjbm4gvlyMzFWVClEpd+eI2y0TEeW4uM9DYyL5yZFAd2OetgvmhwWrrTJJmSPwbMVTdIOVjeb0SWPc0oQpatZ5cIzRlP1vti1XbrnuJk1hFNK1h7bd1co6DMOV2XzZib6VhnOTtZ6+J8DlWbYWWsAuFnlDOhgh7obyEtXYt4P6GtltuzzppK0tEsgtmo1vglIFi4NR4bjPdQa3V9PoswB24ssam+7dK6a6N11sWoKJkR8JVKjdQ5I9JQaNBEUoS9Tur3F646jrz0k5lsRu7YsHwvoi22GN31MlfTYNc0xqMl1Sja8r1LATkAmp32s84EZjq6xssiP+AAIXxEWJi4t46yqP1ZbLK1JTzWLj604Gq6sYWwtaaNbApLhFNpxLrrgh2OoSIzvhD9TbXNaK+FVDswa7INdenHziKKtqi7oJUt4JTLIh9UGRnAkbZLWl4MjfE2GCdmY8HKKLisQOMx5gBlZ9MyMfCQ78gKk5ztXEyEy0ejpNOCg3iiZICAbBQXwZTXoXkvrCi9RBOUMmhH84KAbCjL5a8p62aXYqYdIG7k/I7IRbE6a5lm8AA2kvOIU0dKyfYRNpL6tr2mnR040rNCPos8uVrDcErhSBzryk35ZY/BphpxSjK8w5fwj0SOhFObx/VOwnZDRiUmBOQczjIwBC87j5GWM32zlFZGoeEIGCNNqJR00eoHitZFMRgIK1+hGBkNLBSEg6EO6yi/UYawWPEduCjeY4jIbKTY0VKxFcnAu5WUwvXJmCvVdi6zaLsmr1SIC2RzJsocZ+ZZrJPXSTZCTKurKY/dxYbl8cZaGadi6Fjn8OYBOQKFDGP1O1Hc12U7PHGx6mF5khGa9or88NbigFWSk9WS5159jHZ+sXNs1mLKmI2NB0NHGiYwa19N1hGwRjx8mvCMCo9a46U/FG5Mjl8Ue4HNpbz4WT26jrw1AgQ4Cf1pcmoFga3ZGJiVc4+MSxm0p4Snf5E8ZR0xofFR/5D4Lfj/JkHSNsounSyLvbSwDlTPg90p73TZTTsr3u85zlIcxiTyCGZN/mAPQGxr1DU+lmlbiox73HwvLQQwsDNZNSoB6w43kaz9xn5kRwVIl9s05ZhxJAevatt1UXRCjpSMuiwCZu5h+a5xWyNlJJhyXcOqjM9AHuO6ESf/aikySOEGQ3rtArH+9u+kyppdkVk9w+06CniTqC1n+eqQ/Dzyt/pgCGlovL3ATndz6YGJNgAAIABJREFU4xpF8jFshJjK0swuT5kYDJxqrJ5nA4h88g6x+zmSX/pXNqL24TDinel6PjXrCv34DpExNCs3O19y6WFLALrBlF7PRekN7MhQue1asGLjPeQ9Era+bJxKRl2SZati88pqNSF5oBXLUeCRvAdy46helC0QGCn8GfhdNVzFRWdnmov3Yt21UCfs4MmKQdbVOe1/RpZ9zSjIRZp+kexr7faOYBQZmdVdNl5kzO8/wEZsiLMmSh3fGVfgLtCRYtNfvdbPZvDAxRrRbGCL+7kka4NbmWncL3sMtmtru1w5hp0uq2d6KtCzCcmG1gJjXQcAMizWV005/YBl7R+uhmZ6fse6Ou2gjUqO22RQ8uqSdK2KXTartTm1qF5FJJ7lzS9aFFyA/HHWGXG97gWdDBRXmG8cc5B1PLjmXjAjTLppjES7KETreOTsgggioxC4pEGYzjoqCodY8wAn8ZLXMnVwxus6Di9n6KaNo70KlTBwPIzWU7Qt4QiNtdKNT3xx1HqDsdHG5m1rjepuckFalnxwzZac9EqGd7NZk8qR3wIYaLEdJeiGoWTspd2Dqscxa3BQKj5Qi+9wiY1NDtXxTgOR8N59TNELdMupxVvH4u3QWYfj34Lt+A2G1lUORv0nbJEwoqkNvWS13/9szZ5iF3IQJoHvfLqXop2b3sLwsyocFi3SLCcdYCMFQa0jqnv6cl3WdnUnrCwLeWA1j/tlj8FGtZFP85A1UadXP61Er0dDq6/XzWBzL9z8AQI0U2ukF1kdWx3VS/o8ZkcYaJrKmlNkDSZKpZhrZXpr0UoiFMevMbsJR0QSGF9rsae1asSKfmB91uFAORM8p9vMOn6DoTDxKjrO6tQh5zPwYiWxptPf6ltbpWfYsa8e9dLsA8QjDQpkDrJqqGzoyVkUhUMnJPZJzESvWac13u2TMZoFCvrrpCfnXtS7WwL2VWPzs7WUiLlkR8M8pPRXWqLecY/SREW2fsqxrV1su/a9vOIlc+SHZ7pNagvhglwSxvymLqBmyk4+tzIOjK2AdKzd8Vgg71ielC+GA+MF3KAWrRqu4sCClqV0dSl4Vj/sNzIrIe5CZAUjEKwk9Sy/SGaN8VA8S05WeWKDfeH26+vHGdDR43lPxV8L+sEHF6v6CWai6TA5UWMqcolDnYXsG2qvmTKbMN2t4jo+6Iht1X3gVyjXn+jcyvfuNIN5hcGXLHUypyyH188lRoRWmscmpYzgcpssumpDOzIROnNpZeo6VIv02QpQh/YiZK1wkQ8KriscyavIy6oEZku8JuY1xmNarLz4i+Z+inWiaNeg/Y9o+r70gIvl/01Z5RTcvtFu73kLZH5ZZmf7dT0XrTADOppxckRKhNaxaSJ5j6kjHrbzlGPT6jrYhIhQNdb8qmmmRp3Lmub10xFxuxoPzYUr7nVWl9GeVzphCfDyKsRhcWqzYk2YYxNRgeKyThAd1OhN1ni3cdp9p51YI/YkamQ4Qm0Kcc/IOzEvdrCJOo+4aRWiGEoIQRilRgTbZNPYWpgVh1U0o0UJU67oLIqB39ZH9yoKzChFQbKg871LtBLGst9xUn1ZyyPUcsBvWf9hHNfZxknjw7H0spMDESqbnLBn7KwWJo9Nh89JNWA1j/ByXY35RWGL0X4O/S0DjbfmoqvHO9lUyfUcYO0EmVMErTB5LvLTG0FFzPg3nfM2nTCMEY28FTBA2VlrI4jbWOMRV96JdpEGkcCqbLij/WfXZXmCOl7iDWLusA7FsyrFuiTjFvQw63iSCDSyLLGobddRHTSfnmWHXUgvWiFj0u84rL4s2PSOOqDFeTEV55pKHog+Cty7rCsWtyfZHWO3UwErewemTBZWrUk2KoqT3yrV8FTUvcttKbZWT16P1VWpn3q8c10cWqe81qaMhjuf5U2FWg1b+52AaMibxpmEabyZYBxvrYxTm1oBP2Qjw2E47pYBd4IuVSzuJmoLJWRkp5Pb/TQukwsmWGZDHk0yLLOsSpFuCdWfWpR7kTy70++RXy2nc9BnF9ZyV84YDDv+4I43FGkGftKMh6cBzZIEk1oPUylBTsaGeW2NJeOitNvE4haHcAAlMnlMqygOE1Jnr7pzwhY8hsm2IFvL9RN0BstRjLkGCUFv55dtH8kHJQYBuXq+Neicbjhot3E402wFKARtxAg4MjVyNxWjNHOFF+N+Fa5O1s9OiShDQW5TJkd+OWn19KvXFQYPDYbsiCLP1su96jbI2G24aUUxNEK4WOZS2GWWBmCBGxGgSmz38vfbbyWDOqL6m0uzFYmlGgFzYQPedXSJCgWy68gE62fAlB0nLZwu7dmbspax10prJM6PX42ZXRX62ksqTN7DmAI3uygUX+N/jaUg6qIayf8qX9/JidT2x3q/Wa/t56a3tazUpT3tnI8QCYWjjJjZu8hGu9kVJiduf4gTheSNsZE23hXPOmSiJ9dLJrsJzEkb5SqF4GoVl0sQbiTLZIOs42CD3ONBb9484r1HERhZafb9909d00mefnBvtCY6ztBVww1jYdCRRwZnWUqOcluvZWPAipeeJrAgiZWm9jKmpYzQ5Uk7Vl3tc+uRe5RiC3Og1Aq5W11pqkXeVdFRteSkjMtLpYghRVfoVw2UBjnFxqaYiWi25atVhotGnogHLymPzq0hJLdO3dqlK61QrzWLyCgXGSe6PRm7voo/rACHE/fXcOWnCSM00krKBdWzE9cqGGnDDG3FRd5ISUcUm0xCZBomJDybaiB8i+aqKhVhbbcxpaXmK42//+Wxi5Sg9mmy6e0BxQ1/zAlGBUOXRsWKOD0NPdh1cDQaRyOkRTaapNnyyrPu9TVBVoHO+lWR5rOJYZjSlBZZHPTbKO4B2wgvUe+nciuxG1UUwq4ig2gj5H6UBikQFQUZspSXvC7j3OS31uJ2EZKSHMzU+4ekq44mXLf+0L2ptgLUr2Qs1IpCFpWmLDgq0fYx3q01hGrN8pDslwsk+0lSDsm1U0Nq+sVF7TIGyyC9ZH/jhYbEDZMaKori7K54qPos9q1i6Q1eMphAZO226xjJk01il+Xr10gk6P/944iWa+x3lEOt9K8f2/OuQbYzJOSc0lon5Upq0bPxkVdDCV7qu0akIwgMchjkqeGk0YGw23SX9lXbuuunppLvC7MvpaJ2NeLRYnVA7rHaF3x6olGEWFgpIGNAUZCd5BjlIKoFjTzclJVdw/bC9GY0KufpUh/88bi6LBmiFSUUNGZLjxIoMh2zZoj9WRXXTke4I2+H5HJY1xjtDJVI2rkILQdHaarVa+CCkWJ/eSHl6EqNIuvKUFut7TKxNfddxuYKyE4l/M488VvNSWoMtM88CovMNyX7x4/f9N/e61eb/gd4izyMUJcihgPnrcXR3ny8cQVLERlbOxUz6Q0ymcraH6bEqDBVhCrhlDBfKhd9FQj3xaQjqMjO0h6DjtXX5GpzDDFIS+hcPGx4RbUgKgTkKoxcz2S5lkG4AgNS7fyKgpwOW1XlyREwkVizEnxlQV2uTo3Nfr9blFzLZKfBeVsx9tA8FVcWpOLIUJEXE5HqdTqr0/LRombsC8l2mZRZmXiNjrlQLsx409FG1wyVCzq7/PPgydhIkTX2tg53abdhr6Wq0kjJJjOyaA4eNRat7SQ0wlukIqlrhLfkYYvUD+App0YW+DUICwkr9UFw1CoUp2IzcAzqXTkaIS2V/VOM1dkA2mwNtKNSRcpnX30dFWhI+WaniQvpWqg2JbuxU5+KcKckHoSqbkXRP9gQ0fU0FIWQqJyLvVx6jEE552UwMqL6XftsPaot1gLJj+47E6fMapXScr1U6srto+JZF5Q+xAK4MjzN8i6iklosIMyEPCQMbFZlqzEiB9z2rrlFC5Ma+t6FVD5OPwqDSxm2hOz32Kah/9W4tDBYNMkR3TNAcbBGywwbdIT0GiQtDklSF4Ic4TAIU+MYn8k5kpFBZBY8V+e7yACTLdq9NFVRqe1NdmTmCLNbs99yQjLVExbYFyew9CtTWvZHRaHZyeKitbO6te4Qz+CtaBMSlPcaMhiWVT0i8GrLrKZRqc/4qoYUQHuKNsiSyxyREVe4hrN+yqxTWd0kTDtfqaUStVkCqlwLY2O+zegSAoboSo12hoqqCEkqrouFNRNii8Pem/TYk1vGrDD1vA9WE8f6GBk4iqILsxZ9ptneRH0MPCIjExJiuhxyRFrz1NWk3Vh1lunIs1WpbCBwOpRfkhjkM8VkgxymqEtmsw1OTXAkx4yKtbr2rBMf2yfKLIyqKoB+1VizaLktUaWBJGWOyd010g8ApTDZVOWAzI5NVAVeLgc1OQArrLeMicNTaVhkVwBMoCRdJoCwmqorTDJRP6vjm2OZ2EpFJo/K4XaoiajZmBU0lues21Z8u91tHr6xOYnJprKMdYZoHKObVg2jCdRcQNGM6I6+JEbpX7Gs3/iMRaD91Ou304ebaql8fsgqP/ArskVHrBV2qTQatQV7HaCu/pFL0RWHcAmXqHSPJie3wZT3ZpPsUdcBxpK7mgJTG9tOBxNxJ45RpTgItZrsZmTZFH5pICGRcdICdte2vReLbj86iz1U9MUvX6Jvi0q19iWUQnMpAygDbR3Qo6J4wYqSUZckZokBMlh3K4MhOOJG1A/CUPL9L5XVPZnMZHXjJTNWxSDTT+UnD3EerkkikgqhytudLQ0wHGQajQNJaitFHlKdMCkV0Rk1BoXlIpLK+1tcu99APJHPbv9P8cu5rmAZ/CN3atm2lfO6mh+CGFoDPbWGukgwRmCz0m7g9mqTWlsiqkG6kibcbOhzWKMuiblsbDkYtmVxZCG1Saxmu6PseNNj7atd3UgvF3KfU0dnq9Oo2u3WGnpk2OiMJhuVBlJUdlAdmuUT4EsE5F6V8tyPHrpEG6E6jZYPHIGlq29KhkTi6nKkR1YWjsEakcsEeXSiwep4n6INmIU6NyLjNCqXUu0XuWoqY2V+quQkm6Ai9lsT6Td8SUfSS4lWLCjkS//yQqbRlV5TL994FZZUak6WqznvI8LQk3VSBVC//xqprYvVn+fIhmz8ai38FlW4+S7FncTS+UeolI7h4CV73URdG2kNR0UrY+fq9Vkp0dNiMshnKi8H2UsexeT2ENGsTbVhovItFdVGcu3DrNrq0g635eaXo7YQyFG0uTpEpYHEZHiIqqgHpSEsCiIF2A7KARmTBVotWfE185KmIj0rY3tU6fEEdBVTKqg+aCj+iE4byg7PAkbUpFxhJVMtNN1yNVXeyhSVCcD6UhH5yXlIWYeMkkZqANsPYtWo8iJdFN0g2WiE823LGZFm7FS+20WUo6odAU5iCvP3f/DzL6U8fvk+czqxZt8HqvBf7ZFE8ZO1yT2St7jnCHsNhEfGwVu7pNWctDis7pKziH3faGw1sqWmFd56WtZqrzYp3Rqmri2PFxMjdCW5ipTURpKRYFOp3U4yajdCq2MNMou6nxpcHWxpgK70K6Nq+yHePlgPigJVhA1GQkeBL7Q2u6a1WTBDUYctLqpMeAI7FEK+VBmSl6ATEInyyKFKFQTvStJo9MsjGzxMoSFBs6mLRLVJJddIpgFZ5kwgFZZBRqn7G5xyOBg5ZZlLdXTb7GoUscmQmH6UJJmSXthy9B6hreSlQbTfJUMM1m5lF5fvY4+zIB81/hLPdurvMyPZtV/RyQhvseYB9lK+/OJE69eWhuJujK7WKS0foC7ZuUtjJHyYyeaoS3CUaMpg23aLye4xC3tebXjsdrKOTdV6cq6aXVfHVUWo3VtpoB5SRGmAgKwRskBgay2K2+2DdCR3O+Jfw1sohAX07Sd89xubz54cubOFQxViORe2ZVU8mYZ4QCSIhhkFpqQFdEKYGtO00T4jkaaitpO9IldVoiItydpuZi44F0rgNQXZIBKccqhHHbijHGNdiVubUZu7Kglv+w1pti9tJdVav//tW+/scpJvfo3dbf1u1/bXAEupEv8+k08n2atPXaCrWejUjHhdI+qyq67JbIzJLHvtUlfDW91CpomKgt6Nqs2E9orKzIqH2u0KDbn55ZAqBHJItpm6uOhzxSdiQGmA5EoGyzUKRFQdJP2QBralKgq4bGpQsIkgjJCmGvJJHeJhC7bEKwE5BThVlQWHEghIs2wQPYo/FMnBwvYTpK1raXkQ7WayskGXTcaqXBW5KJqLjZqWi4XtbMF5SFmHjEI6sWu7gpx1dbTZ/cgxGlVpRj3gIWQaI2xdsHG825XFkG2oJZYCarl5Zd//JvhrSqmJ9kjdh3DUoLKrKumvbpGCnd/yTKPWHkJe4wB7kRkZ5C57gbGOHbbIXZ+07LRAYzw0SGZyUqTY5K/1UXsa6oqRV1w1sr0briJ3XiZse1651rt8DTforpPBpygK6KMGU5ctDTQkGQVnEbmBo+oQlQZVFGRFYPvSuAyS2tKXGpKXMmbZv1jQv51RtUZdkoqqL6qmjNlcnTKjbETi3iB6tEFe3NSa/RUS/+xIJq0y2yRnm5lbTpZoNkahK3yZWvJwyTHKKKTTEvy67eQK2mVCgpGKSoOOImca6IcTDJRDptQKUk/nZdfXCuMWgYZUwrz/TffsYm2pnmN8M1oK2+o36EsVUAr4AHstWm3SqJkvl+CtTmw2HlLdpSvrDQTGQyM0Zl0Pctg4dUkXI1zVEBXNRO3Mdtq888M93274VrW5amoBRiLXCzvJ0kAasjqUS5GZ0VaPqoMrL4sCVQSUA9quqrIg/MGGDCNSUUXBFiBVZWRBYZvKAnVaGRxQVkYBnQgKUWuNgF3miH6VOvX7I5W0TX62GTLFQ2vKkQWkE02mkg01OaMwQXmwltnFAm7O1KGtTCFVWB6MJW9u4NE27JJZGfSoFVe6vNbvqiz+FCsNQ+ONnwMPtfrW/oh9+3PsDyf/LOsHs4PUxfLNeWgseFlPI95qzLY5ijg7DZCWlFErJYfQlrFR5yCHKd4ixT51SS99ulIsVSyjpiDotiGNy52/bfsYT7n/pdWoZkkZaq/3qgtplerAjkx1KJIiM2WZiGpEVB3UAYXEuCIoslFxupcgJHfU7VQsoiiEVFTJUAXFClAPKAQet9MJdWH1lzqDdVHkMUsbUVLJL5URj23ILFWmomwkI1tClnltJV7eEpWMQjqxWC1W9XMJpz1Gy+wqSo1o802P4iFFKiq7Fk/Nm13QZlhcqEwQI3rF5XK/96sDWZm6EZBe0e5TjqST4m6gxDfrWiKEq/2GcbelRaQ8zl4glREmgDuZwdwZkRZU0IDHqrg/HZJU7DUSrQyyQ1qKqPosxTFLy9RjE5I3f2fbsx16l2yETttQ+bMJLDUC1UGTDcmhiIgNL5rrzSkblDVCFggwEEqDLApUEeQdKG4/tyCD1uD9KT0zUSxiC4cqOlZgh0I4QhDJerl+1a8YBUTi1hm16Jh6RBuRPBTdhspSmZAqGzs8RJZZkZNwzbG33146EbW2NQt5RVaafCrxNh0BD9kEs9ll17FYD152ia2gJJLtvoHllrsHYpfet/rWorrLsAKzPSOljWzKZ6BuIkZ+DZ3oZ82uoixAu+wFF7uHLUVU7Hp2S0hGGURPbhhyOshejSO5AVrIJFeNxKOCibgKRCU3P3TVtm8j2q5kOUBvBDiqA0oDqaA6UHtLQlEcmsduQKkpCaJAiOrA9IO6IL/+JV/MK/a5FrgH05lq4BSlKISMqOpj60tTTdhrQCEICVxCPSgdilHkckzRRvQjVWkQkfQbyCsSswnppiIbbBXLvR1uhrrptIWzJRX3Ram1jorbR5Fja7ObXZtL03JW1shsHd1FlytOf6v/B4u96c+0kDQzSvuyBnQBa1ebywFERuodC0uPIwQmSMVnLElR7GKXqBA2GvCCngMcNrjfJJ2Quw50clPtcpU2ixKMKYkGuEp5Z49257Mq9r+wVJqSmdSQvKzGf6M00CiqA7Ut30Ad20nmj7w39emH9JeSIOuC5BuQDRxxA/Sg+tVldOhRFEJaikWcQqOqCem0z8+BAGJQNQEVBtsKCcl0gktYcJnDirH84G9TYdw27B+VIw9J2E1FNiITkpOQUg7pRDKUURw20kmXBbEdVO2SwDbZxb4rD20JxqYU6wjKYb3ybtd0GzOtdrkxLMMrJoVNXnHnb/VHnk3BgduQblwBt1PDJ2J15bnTFt/BgkLqxuM+gcnlVzmHIGEWewlD/YadC8mPLIfK10EOs+76vCUPXtE+p4AVl1BPBBTQ4I3Hl4qrYE3uf7nzV62BB6okKR3BOzW4RlB14ORR1YEEaL7Qlc/fGuSDMiE3IXKjeH+jyl6NkW4tCuVzqQiSbIr8zAvP3yIlzSJ2u5maIidCZu02B4vAKbYAEganE9FTbs5wCd2ls/nTGQxFGeUagdZuA0u8uG7EkYfLUFMokI0UVc2cMiNLNvLehQSkO3ZWs6FcNalF10F2lZEl+bfUWlinSa1ib/SlVtlVk0uvFh0rTorELvtPxqQt19lIp1slZYEb9LKBuHiN8iwKqVG3O8pTk0F2qGuzLPLAs7f2SaLirqm5bO7KN0/+4Ul5lxOhIXdFtIq48YlIy5ht9p4yyJeSqKjHFgVsZoUJb0jFQK4LWJCjkqJkPxeIqDqQJPnFsziuEawuI5fFIiwTNTd49Zu6IIsCiy18U0lHxivaYoFEb9y0qdKyiC0uamOqakKebPpJWCI6IUWI4fChlhvTgCR6uBHJKzH3kn/BJFNReZEppBzJtUY2kjwnmE0nMA1FAl1kFHXKpOJoZTBQ4SFkV8NAS86gqjSpxWrBu1rfQKp0q6VX6y4D5kUfYhflbzwapWgv1ZpZAeqRZbQI2O3hqtVOVftGglceO0E2knFgKgYOrUNUNfbms/FFI7VONULiAnmGvs5EIEMN6UglkBTDpGZZioxEREVDbFadolACZAZzMLIEyPAGJ8v7lgoE21HVgQyyAB1uuEBQj1w4ue2jYiFjhjwViK001O9+yTgVhQ1/ebiRc5PtvTSQsrKtWMTui34pIVNyXmwZRMKXEMBjLvRYOsHQqhscRt0ftY5kIJu17yoVkdUkGSUhDalo1+SpZxeZTmAa0kIuURvpRG16RUnFo/3UQlKRMBOPTC3qlKVALSvbj96j7a+mL9ddDpXvXZaY9u83owio36ZmR3hkaNtgxfpEbH+aZSquBqtM63HnKIAU7ExcGhyMQSIj1df+mL1YAFHxpcxXaVm1PUch4DJNO5OyNqM0RTAIXlYKbJLxEgCDqgF+Uv20GVAaaIg3Kt+Ngm9kgYAM28Fj96hYyJ1PKlwm5BMSFmiKgrgJBQdYSDmA2XeVsbbWqJWSxWKdMj3Pa19KBlxCUhjq0AkSaZw5VJAIRyYPOncbyD2SVBaQgWWofs/BBlut35xgNp3cXCILmDW1TZI09Wc3tWRScWwMO8zirMOj0TsWKxKg/ohIlqEmbLJGZ5d/bm0piK3ASE+UAa6uXMUisFdJ2YhcYO6Ra8Y9nfdmxw5wGKgr8tIabLDuhEFDdiKqCkTq0mMUldKVKmVoD2oZW8RYxmbITwhGEhV1quDZoEohRNLPT51Li0tVGkQYP/kWFdWBhsA3vD9lgSih1lRh1mFTMn7sahoC/VAbZYJghAyVBjwVKbWpPulqDjekXJ2yu+hdoQoxxSIKWBJTlUUWETaiBKhTsoi1MEUnckFtbGRcCnA8/D64TaSKbcu1o1GZzCoYZCCJISTON04wElDpZHOJfo6slgkZRWZlUnGoMjykBw3hy8IqVj5bgbINkV0sJt/tKstR1ZYJ0Fl6rDupj/4i+Zf48zHldfwS68Eqcqkkvh2Dv9ujiTLYUVw91q27Su4VVhJrggxO61s6DpQAUJSMViaQ7LftzRePTU6BlEY2pPQSxSZldimK/Eok6dIlqs2mQBJbUUWyCTMU9V1VhNqtPzkeSiFVHUgOBYJ3FAoEDcndy6zDdlmG2zKZZbHg+NmCLA0MRe3fKsLqXSUt+wje+3epskCwAVVfPAF9k6RkZDVZp1+3CSSxcDidYOdisdDDRqIsVTQJGCJ5CPQbTS6J3CMtpB+1MRFYI0Wegk2n2rMda0hL5gkbkRlVXIgTkhVGaiGvZFKRuswrti+zCyvCQ513xR+QVBbk6itwSPL9H/xwzi6wFTWUj0is36+icYUV9CoFXRXZqStamzdSUrYlh3U8bvfIQYlX3tnFyKxlME3e08DeFCx7DXpsHAUzIv+Y1O5+bgx6OxPT3CRbv+xL8ZAQ3j8hsQtZIOCUYGFTqjqUOS4Fne5GOQCQDQ3JzJebX4Isk9YWCy4QXB1IC8JUF6LDDWJGo3NDChk0FIVQv5wFXdpSogRkEWGzcr5rj1g7jI7QCRLJZQ6Mshe8dzYmZCYaInjWQp6r9KPRLQPpon5nRlNGOtW0KcRMuYRjDV1SLqmHtBJqmVEkDBipjTyhNr3c83REOSTPrLOo+m8yDFdC5oAMjISVLkbpydh6b3L+dAKjbnDjnRJicPWIumQFlh8PSS5eP3G3tAsKPcLo23FntDEWhusCocM2EBINDU652SFsMZgODUrGiux7BvVtr4ocYasKAlPSFzo75yQYVI7CArFMmbmHfbEX4hs2xSsIslmg2I4HzDrsS5YM7CkaapJZcAlVBx5SZFNUFm6zN6HsiN/tjOQot+kJTPlZgHgpFpFxspSsINQj8a8Cek2tDDMKkt+eTrDcoBP0kBcoske8S5l+J0ZnG1uOmbnLIWQgJwmtxTpa0ynKJZlIFJtN1yijSBiLpTKKhlC7+pQj0VALLYdsWy4xwmAxOYQ7CR6idXz/m+DsMlXWbUDWdyRD/RIvuhzkud8feovJqXbc8ZB2GtfWKr+6i7xgjaPtYUOy6TUIOwiMbY541Ly1R1oytmjK7ZbbP0lIlqLIldnNWhsbR6KKyyYsYFUGxUjTLLqLC7bM67oaFLeipMOd9nDD5iSk+F5H4kZiqBfu9zokwGkDsqEZPCOQAAAgAElEQVQeygF5E4q8YqcH3lVFWFw0rKNwc+SpErYvVUpoUCYhI4YerJ2lEyvDfqDSum28qKEDl+SlSSQv8dx4WItwq2lT8EE61c71n4GBmEwkksfci655/omMgmVq0Iszyt7NoKDxaiJtmHJovcUjN7bkv9vVZzmVJDIB5ERKhBVG+jeSR5+MDRZ9P2TRS1ECiBr3fmEiSVVSIxSEK92UfgenAw5T4MI0bPaJQQXP6pFNGEcDucI9ajkhJhuqzPXDY0UZZOSi2QY1jaRf2dYxmCLFwtiNra5D56skye25ZlMqAO5ETWH8q/e1QCiyIRUcbjbviyHsIulF4iaxwnM2UqUCgepAacwpxMGAbEhs7d+77ymS3h/F2PtTlW92BykBWUGWGTcFce1pF4KnD24YoRMhrDmMXGCU3eEdtI2eg40WXnkDpNBoVn+ZNa07h8dDJI9c4pTYcqkeayhINttYExWZZyEzinqQVMgo+bSNVRTr8OKiOrGM+66maWVkGiCS1am3+jxEyIRnF+vD9gwW6MOKstiRkV0UlCOL7EjA2mkLH1zAeGQTtMQqJ4Pf5QYV9jhckrdU6mCy1EC6dyKxMXQMFpu4XxMgb45aKqr71r8RkUVBhm1hr3a2m82oQGDWqkawffldjvQiq4aiH0aDZy2rg0s25IXMytWR81Jtvj9VnbhULCKjZRlZPqjHrhomssq3S0OdkgOYUdADa+hBww4t3v0lhhbHUN+bm3IYrKNDn0g5klbgyNWUX3lyvpEw0omNUJDcw3bUKCXSZlCwmswljliGsalUEkLAPN9tHxWBYkAIFDBxK8PG1XJzp/su8ezkgFoa3FLQv8C/raX8mx3X2W6nBGVX2AqgZPPQu4jNCtuev9pnZXJqVlj2yLLYnwIijIzDlNrS0p3bhmUejexLXUlg/bChpbxQ/yBbRPZl+ZO5CI+qgby3rhk6ZWTbOR4DwXgUHgSo8VFu8N+4RqA6LP3LVyn1uxbeKp0awTaZcrgt939bg9anERQeZGiXAgSarEs2ZFY+SWMv9G6XD0O2oTCxNUVBrcoHGVQCqogsAs0TNgiwIi7RgEHRs9Yf9GAiEEZP8SjSQPafaStHW8qR0dYdFm5b0PIoteQCo11WeVFhSZoUEmlNADGKmMNcYonKQyChzdciwJggNurjGWEiTDlw12m48Cp85EqBSNhmO/SH/s/H4ZOxkQLXCRRDfTsoxyTfl4RBbkhF7pkq6HKj7tIYeCuKEMGoLa1irpFv3wxDILIMAWrAC3eOzFdOk7R2vYwwlrTZIScOUsdsbnvBTzKJsVWUfbYmJdmLfcfW2obEbV2zP22BIB1RBWSNgDWwRekRNQiRUzdXjVpWlrvI5em39C5LA80LYVNFkKbY74HHQRYrVUGsgKwR5FdVkDJdMd8a2PpQC0PcgHH0YwqiZ9VVgbHlKGNhmcVOvkuo3ZST01zXqGaIXM3lJ2Qr2dR1X28meL7cKatEk0jkRmAro6KRJp2K5JZRy2iBUVqTqUVD9rWLIdaIdFUayKFldF1EamOInoz9f9Zr1LNbhSPFTv+gzb9WbDdLUdptEm3LlLnt0NYKrldSPqrjqLPRLEBL0sV45DIGsiCTUhpEG/GgZ8SX9LI70yWMHnSSnxbhLe0QFTUQqruZ1UxdBmJragfChTK7eCzbk3dUv0CQGG5IUSOWzu22AFtI7meSQeTrUYm6xGGFItjk6y8IWIv7ZUVoQiWhmZet1KqUIH5Y7ZcPElMWqEcaQRti3DNCJzJLoY7AuBFlphI7dolVg7qbcpxsnFq8ayha5NI6inPqWv1/sXEkkspY4Eaut9xY4kBUTX9lNQ61TzkkI71LX6wevctkUFpygdSQunz/2xl2cUNRP3N0ZQ504rf/rCvzb9CaLJqkEhGAsgYaizxKs7sys1sCNZejGolZElgUj5qjnAINIYmN2FZMO5a1NXHzpQzyJc9RGQQnyWCAhqIK6VHKu+6ok54y0c9zeVf0C0QRpipaMSm7utYIdFLD7nbqpJcsHPRzYHqxpNzh8lTUlAZxK0rycGF5othdXtJd7dMcoDa8rBqsYgT03YASIC3Vg3KDfsUoEMBcsPoYsjsFMpgaN0ZWXKkMXiLfSN5NOXbNxEORI5c4IXkuhWwEAWxL2R6RyQWWeAtP7B25uAyslOdIth7hsQS/WNxG6XLJrs2RaWHt5AhWhzuljGzTqJTE0LvihveP3m2pdNxpR2nRUaEhWTLocqSwSoN/vTGkW5+a2jbQtgZpDOF1AttlptZzuYJZHhqBTquIjLT2uUduG+rpTIFGQVedYGQMu7tdeZdmYUcVF1aRkhSYy0A8Qfmu3NFQ/TuAkiFRgaAhDmarEdRVjx1mM2/bhE85JEsvCcW6t6sFGqVdhw1PkmjDy2KhFh1BNsW095Lu1Pgsi6AiwI7tkRWExKSAohMahTAzCpYS/VhxDEXTUYUeEZ5vkEeZLYiELSPf6JJjW9OSfjK+FPCivvwyZc0Zvi+po9RpjzVkSqz7lkXULxMJHlv5Qvwd1uEghX0tT+p4YSHQIxtycWWbZJSiHEUasKn3v/3oPRnrlyEZzW7brfWysk/5Qh2H318zvIiiRup9vyAtN35Sl1NQ2YnYuCGdYqjvncXUZPteXF+7KjI2bHsEWW1uR5l+2OAnVnS9Y39KL9jqUgWxqcAgLC1QW+ryEJeJqECQTL9GkADKBBuUO5zNcv+2sem6vVddh8Q9Jm9L7m/qgpBxbkLZU/AutzqLdGoBCygVJU8yRqCpiRiFYnRAwfJhgQCd4g/0y1lCS3aebyuzSDayjICpvfLKD/pTJHGPgn9y35ANjjWL7i8GR2aRTCGehZy1SiQSAPc0qcKaImGog1cEFqRZFu+/Y0FJDGvKKu2QnwYsyYrv/0Lw15SdCNR6dCR3hwZNySVnm1Gt73iUNNAvjmQEBT0iLYTUMQVmmo1Zhkq6IyghnuqrWXvuVO+YY8eFNNsJQ4oVa/FxCpQgcQMbKRdsVm0PWFDCanZ8uVpY4kGBoCGqEWx27VwOCnDnkk3RWooINeSuW0sG+6sTX4sL1QTcq1ayoR5yjc0vDy60e9GvZNj8+LssBKSlLqlHTiEQaFKoYyGiEzKLTODFwlKCTrYeQrd9Yajt3rkayQplAstK/cqpSjaS5Bkhl0A2SCRkEVlDIoFs4Evi36QQB9cSBgJDesgHtqzBkQuB3sGFVfhdRoJ+tdzyUGKGiiN+IRP48u0//vv/qA4d/1RLctxQ1cSi1o7pT1XZB/Wx9pG8qvtWTJZsO9rp2XWtdA9McDd4djEYydRMI5tuv7v6YCCFg7x0rZGANAiZplP8lh39kCwWlgcg8GVvPBcvzbNZWTKk/Lb/xQ0pqbf92zFR9iOAqNHZ+axiBHRNNwJb7WALsoKglKNCKTohFRQHZpTtstKJ7VGzO/+XEspg/9LNNCSDTQ/0kFkmm9Ig+l5em6JIIZkPLIZ3yKNHJhJ3KnWbITjosLwSUEsMR9yQREI9UhirvErWeym6RCZUIyVt3v6Tv/8P+Rrv8qYSnQcaU1/hHKiVMqSpSicVqY08UP3ycjc8mxNS3bYHC71UPDDHqah250jBjIfdd+3OJVJx+0dWrQTc0MZa/aWuNI5+1AiygM6l3fBH6RElgy75JTe/tI8yIQXkzpdFQfZXw4597lLbXlaEKtCwiCfQsIikELbglg8a2qWTIrOc4WDB0oniDwiwa7zDAnquashlUjaRAMglKYxRdG49NffQQ5YhBi9uCtGoTBJXEenEppR8J3/gWjVkVqiMkvmgVkFJIh/I+Nt/+r/+B8qHvVTmrMBgz/vHlsF/0U94jr7sCs1aGqmkZNMtgtKXzBvZL9uDvqQKtw9Mc7z6s4vdCZLYYBgj04zCc124sbmSFjoVNpYJBSISkPahVYRrpVgU/dRtdAXryG0vZWR1kDKyLki+Ide7r86NJ+mqQlB6xO0nXdqdblVQPiAMMug871IEAzrZdCnR2hfst90PupIrhbZMCeSSHUUPxQoVpBB67EykIo8q7pF5sgrQoomXTCrqtvJCtjTt+nZSQgkjE8iOWixe1rf/7J/9+8rfyKWyNaJyRsaCPmttisx23e1WUrcyjsTcyTxXfTcSq7U7O1KJaEBZG5+m69QNPnLtWkA8USRSC20Jsq0RZFMKuFrwi5Kx9dRHIoudbefLMoE9D+MkLOsCBKhfkg28qIa866QhVQVUvSABtX+VfBHoss5GCfV3rltPJQnbw4xi+xFM9NQEAmrWl1/K5WDjMq8wKhrrfQayiLTsqO1B5DZ/eEhmoLS5jop7F+6RCWPlkVo2E1id3xXOMis6+YAFXY3UlKDLt//8n/17U4+wZDSqrdyo0fFLhey4IiTdsoXRqIEkiAR2KWrXgrU8G6pMd2vN7RnEczCS8TlGPBFNwbXsRhVZltOX1uBRdrbtoTLB9qUiPNK/0kF/UrMKBAcdqeiSDalLGRQFeOk3bO3o1AsypUpG6ancwI7sjt49nUgj0QEFXkAn6GG/B36zw4qz71T63ARjO0gzLIpNJAyRCjYayAajGFrEtnsOGbCU4X7FPUoAxmFEJhV1KsqBmG2cJxKyKbOFF/Ttv/in/451Fv1Qykr2ewazBKvYtxaN/jZ/6RJJ2n5ZFOwo93TyjwXsMsem/IcqkTz1jxuHkd2AIUkNbBjZqdoqrdUoLnf9unNxVz+KyrWAALghw4BxqSiNox8NMiLnaysF3Ekx7oyMyDIhtSAv64IsChCAU9tQpZkEZLGgy1kWAYXAlywcxeBCQuhEABGdQIUazCibyvKVTOn3/qIAYiTwmJcCHLnUTyRoica2090UkmkgpwYL6FSSMpdIRo0uPQ17ydSCTWpMZYVKCSx9sbMkAyzLobf/8n/5tzHQafwSX5l0xEaGiHKwVCPyVub3ie9syNqg913SsuuqQkVqqv7dS5thfZXdQ5VSH7E/Erws08qFvHSBiuy7sXWWLIoBdqQjaWcToA1SX+ikDrRl/KgUVWP9dIXRuVjbyo0sENJ4I2+efpARSTyKQmhU1Qu17YtALeXULpfiIcbaowTawlFUFgFYHqeTRXf9ZoVvOkEnsEYyOM1wPAfeB+9opWWZFehHXslFQS5BBaOuPEaxym7+QAzeIS96tiylTiUgM4pVtAD9ltqsJox3EkMPCSOdIU6Mt3/0P/9b8DHbuJByOq5PcglZRip0vPDQiK9da7u0ZMNQqWAFVA+yXPV3Lm0GW+FBlhoxRcajILEPZQAuApGFfgBygeBLqsCslGwEKt/ITtnmyFXMsnBIYSnm9svSEAlLrFRbVQ2150lYsYgjIEpGkW85ZunZvnLnwgEZeEcDDCF61p/zKEaBpKIEKKqZPuZSrhEyxCZSP4usvDQrV1lOSqYQ9UsVFlOKSkCNFgviIa10hLbMDawpj8pV6AyRMG4yqC0l3/6r/+nfLF3XHU2kdY5y6t0CNKXOwiMkIc2OyCPPpKJsjxiB/K41SHLjPsbCJlEe1aXKYzWKyw4/uRYi79icsEyN3dyQ1uBOQi3NbgLiySqEMUp+Xa02sO2+EkHKSiGtQWCZkaNY+kVRkPLSqdposkywmBZoKYRkdgVk1ZDyXHdQfUASosenEzICYWaUTcV7MuZOhDuvfbcgI5ewdsgNNx8gDzGhKFd5a/MUIIYZqWBkIrkqSn7XoFp3solVYPtSQA3JlJBinpHfb3/3P/7rbFG9X8g37+3/3Fs5+qt+F6r6xy+nyro0q1ZFDnF7xPKIDFlDzlkvUc+gZaiPuxjkql18yrxEaUYksmFznUddHnKFIxdyk7ce61f0IjZpGUBJC41AVYQk2ZcC6xRoV9aXHG3b2wMxWSZcGbezegg/9zb59mcAbKJTL6pAoyLl0WaSEJejdEIuNq2FUWT84J5wtvcPICuQ/zIDsUbIDSG/5oOUh5hQ3NJGzgYC3Gkut0RiAZlO1LMrL32hLcGnTiwNtSWRLENbVkgxrSVuYt7++//hX6HhwdeFlDPo0YrN1lxrYZfPRlwg86x97hkxonRnVZC4yk50OWJ/xOYIOUX4yI2HONXGQP84A7EKjGPDU7+MBALSo5wyFBuBSjZkTQqz00bS4xsp0ATTHFC2iiNlpC67w7vZ4dvmJxk1Sj2dYsE2lYq6RN1Hf/T1CSTxvGtTqQcUFDUWxhOzaHbov7UBtJEnyAfyi3XB6CYvfoYOlW205k8/eXhqUOdLGHEvZVSrukiqZXTLKxbAOxaFejq5IcVIUl1irb2hP2//9J/8Q/g71vjVPZocswmt36dPNmTqN/9j6DAaNHaL7y4tLb70LUbgrXQjXzsycmg3QinM7REVm/TH7LCWay0iJBcB7F4ZhtpmcojakocgKe1g00qPUmDT8ioFuYAAu5a6cspSDE6VupRp4qmlQQrQ//1RfpmPusxhqN1OnZ1KQaNWXvXIeqFcgC1ABqwLFQjAppCshxsCcnnxkJBs2JFl7n5/o78maitMP5GwoM2qVfLAqiEfhPxW5WXm8AQhj/nCVBXY1KlHjdoeGR6NylMOPUFdfzi/mO6kE5ZmEdweadKlGWrWDov+9vf/5F9i5V+E80Wvn0ct/ZHzPhrMIJfA/C6B7RocqeDsboSfEBg3xo2v8qI4KlPyctDsiJjdG3AUqbsqFzKQWyMoKmxsbHvqxFbE6NK57WdEK7V4jnKfS3WoNAK0K+tL9rft7e5EFoWqt34qCqHeTplgHVMRti/qF/XmknpAFaW9nTkqN4Ak1K/INkmfTqQv/sc7ZGBwRGKPf2EFsSJIJNGzLSLywaYQ5GkWSAbIU6cU4JnCOyYORe5RKtKaK6DkYZYbEnbqkZe4XbCSMitoVK6XtFCG6K7+f/vv/kU24b5vQLrDM52/PMppaHTGGmT1nsDAXmOXyfZJpb3rcR3uGrFaUUW2ktwzzliDlrFVIo/Uv2vKFVC7BfbHhXcZSG5RubtsmSDvUhh7VU4fAtJUURQUDsUCi+AP6Cr5RkbIy360ZTBkR1HI0tPsALXDSaBTKWh0EfBvPHkUBmEH9WUbar8+2SQ3pqmcVH89FOmy0zPvB/5WTyYVAMfyYS0oKptFEGvTYL1FwCiMyMzhaUpF6oEkQICRKr/df/jyIqlcAYBPo1gsNi6HltEtNySR0JCUVEaQIW//+3/bYxd2qd5/DVRVpXLV5e/TT+F2+azZrF7c52lJWd09PGn5sQd90HJrN0a5MUJRI3awOaX9SNHtt9uPTbnCNAR5t0YUAfPgYunctij2MyQXs9udFSYlBUgGiov8ZlDWC8hIXcRsjEinW5vE1EvubRpS25t6jMBWJthUp1isAjS/5YViAZvQBdtxAKK/6gZ0Qoahy3wAL+z08e9YFDeRsHxiQdcVRw/FDDHkgJs8UoVnCu/1Uq++UoGjKr+lH/do+eXvXeSzIawmy0v8sY48JCVVpkktEm4kP36//R//zfpkjA0de//1IcM+ZsPX+k3/vsa51y4ZsPld3jpPS5jHYEiQP3IAGrgDGDEb1XTExo2InFx17DdlxBf2/nJWbUWyA105hDIhPcptiR2Ie9JiivZIfUEYxYJHYBACWvGKw41ySi7U3pabmQNTu12VCZJRKsrg4mLjIQjDDigBijwkJFd10bMyDXRxvEC0/Z8LQYznePk7cgZZRC5E55oP/UVHCiF/ZG5gKWGkuKj3PZgRdLkHMUAAdrhHyxuD1gIpKjyxuDSEVWP7WGWrJSWlhcXImgNv/+c/br7Vv/BcQv93aQ5x/P3P+aPJpIVd9tplgl1aounvMpOFaPcIpVR242T5EUYpAQ+sXceU3KWI8yYGgi+5kdBJ3tEPslkmuN7ryR0u96otFsWU2L1yn0clozFY+aZVdJhMxryE6vyVdadAkIrc+XRJL1kmlsuNQpZxrYJ6AUqABTHUHFDgVAhUpqmPyBA26MT2cDyPf0fOiISpSVLXjqJCFmHRkRVYbiRPkSdolxfEZAIsAvrYAUlWhAW+pHdEyD3G4JZUq0DNWywN9WO9WAbrWy+3DNGSdTUXI5sYXUoj5Otd0skBPuBQ7Psv79+xsGKqR6NS1rKJXsnbSzsFZizut+ylTl2WKtTXRZaNlEe3yisjNmzqUa4tFEpLMdaIC7Lwc+C3GzSF3d8BErV0fgby2/PyN2U1nRsONXGe5l/mz8W5H1sal6hTv8QpB2K0D1Eff1ebS6e+oSaDv+m/5UXbG/fX0KIRuc3ea9WgflkOEA/FgM1WDFbjqKdFsXYW4/UHY9Rujf+RRYFG6QVrfAlHfEnv0osjLwoEqwAlYQHkAaxKA/8fDcSA8GAE6CEMwMI9uNwadXUQwCMbtFgcCXEMZoEs+lXZhUZ5+kghIhtMAfnzq+YGEQPPl/iGMaF/2NAulswfmjUMMgIwC0B+VbbgHoDMlzKpuAepJV0rLawmqWBBV3WxNNKCJ7mmCg1RqXn7v/7xv8wmZt+P8Yeqxa5TywGuWKdTcZIKVY1aO7sBuAXR2un0WJbqCPOQy1u7WpHAyBQUgUWmqH/LqVbIjTngGId4imWXkASRkAxORbj9XEJabwmbTqGIG0ApgM7F9UrxqDLUSS9ZC+R9Je5Y287tPkHeY0qbocFa1Ngvv3eKwirQMgdqJYz0CwTEUG526WSXS8gmKubWWGoWLkmm/2fXCOzChvxFss0irJHMELSRKraHIuwccWT8MlWoHynEMmp0EdjSqVxWGqvyO8cgFpPkodJD5oYUI0XkA7WREmxQDi2jpR5QVvfYRRVlNnTgXTHKT+9Y82fyjGLDiChBeYdiJA+BXRIiyY4R5bcjCY+yMVL9pTy35Ul0xMIgybkkYb1Tj+s0YimXk1xfPseIx3cQwFanYFAvSmCVV1Ayms46umhtWxRaqn/Rdbgn5AlhX5YMKS8rBYKUAma362O9LA0UoZKnHlMFGgs0KmODMOygEkV0AuYDZ2yNev+LHnAJeijC3VfnxLyrawXojI6HwEghEsO6I4XQg6WRYhi1lENi6JQBgH64U5rlHrn01COXhi4VD3kCGw9xanXSA2vNriV5mKFt1yIfWAtZUYJZTldv//ff/as8duZdVdLIFPPKz3pH9qcmXCS/27/LSS6TSbO7Fkh4lxgUDx1jZWVEBum2ZVTA33U9Yllac91Rp8scrnBEWj5zBF+VuZy0pfbiWBpsqkMlnqazlniUjDKp2rlMcOe4w5NFsZC66FxsbhtbVg1ZL2SxkJUC/RCm0tCpCxySKQENbZCMEVBAksAfGeqishpB1bDkYXuYKlB3wByWS8ATu49heY6H3+GILNCUcO+AP8tDFiFbQDmksnXWVEH+yAQAeujkBv0qCUPuFCCPUZlLSwBbOpXLbQarBlKFr5FCfCmzi3okc9ClTAzcRrAiFrGItQdirPsypJMNMxplF9Qvdjz1jhIPXplSt8LjtDTucdfmCA8hVEwZPaoxZY11IwLA0vSdDnqMvKj47aXLYa61iKVcTsLOlx6lBUlCsmRCEdWBLPSrBgm4hYNdy12N/VNs1qKzqKN2dfq3YiFtokagOqi6QPZVaaAeWR0WAYkBdRTaKB/1pcoEdXOlUBWNxXlIMAT4xjSqFyG8/tpz5Zv6VRy4RBZ9FPoa5l2fgF59T4ksAnz9/EFSYfXdzJHra6cEXQypHrUoapS0jADmV0xK75Rdkjw6WSGZg4xgQandGSIxhMcNim1jFxSpEte5ly1zqPL4vmvWg/1qa9eC9MUB7FLIrpe+BUyTYpPe6XLXsppO3xGE4VG5g4BtjEQy6N0ajzjMpxnvcagrSY4ko7BfyUZbLRAnIZSMRX0NFpKls36p47JO9bIRBvWgiCzq25DcydhmSkbWAimDfjwtgTVQjiwNHFinQLBApxZYAcTAQ0oAJWalij0uIXWQh6ITSSSoharWyxgubMvnxjIMctFkRU0h5M9hyomCl1nEMjIfqAcJ4I4WAXFPQ5dq+eSoGpJZgWVlL50hKWkSr9xqwCMip563/+fv/jU2PfVu+cNVt7UPPa686jxc48iOdCTbNLRrdleAjMgarSq7cqcmFV2OOLW68CUbg6ZGxEZkbFTUI/GBgGvtDCFJKgL9uKyzhLTeTaNqLJ2Iri0xlXgwHDEQ9hVJyqoh+7HlisdaF9BYFFeiQieKAlGOOnDIKkC6cufTJb12BZQKnLI63iGGgoIeftKFy4hLyBTquOWSTrlHDFc15K9D4ZduqZFCNn9mKYdCde9X+lOACovZtZBJtbjY7mnKZfugTKrLNqW+/NkMFo4syHa5rLcOdgiPN9UQHCFU7gnZZZA/yI37QrFD5UUPGq6iW4BcyU6ndCHbUmXEUV/m4wf9Eem2ZNKRbEunaPctQ0w2oALjXmOLh3Sxc6Qd24ZlOzTe4xpxO8mm23+MkOQc5dM59KNqkF+XeFoBPWPct/JAU3EEA01xD3ZjCalWB3SiAYJBTLO0ISsFG1GlhDvhEY6UMMoK1BWd4HKESyBDXtyir8I4fykfzMjvJiW7kBfkj02efubgfkVlSz9ymUuL92bzlh5RXqyAWjVUdnYqR5FjKh+wmqSCJWZ1OYTFXYfq2Y4v6Z3jBE3C9dv/+1//GxA63ECZg4UOqVhht9bA1GxD2pftyM6u976AdNG2m1xBvkZhqP7IKVxgw/ysfkStU8bKvwS7+/ozILNvxGQeq7jTcTtJ3vbbHhKTbAQBeRIC5qgai/FtnuAVWTuKTIWU2vyC5HopBGRBkYrYbKSCMtF01kMM6gK2JcoBeuRu5xg6lYIEVLGgHmuB7cAFX8p3qKC+qMdcJAyqUEeT7XxQ8Y6IBJksXaMtyQCdsw24kDfN2EqDybOlk0hyZI5c+t3wOunEujKpqEcZl1lU5beMlKPu4mJZWReLS5dYXzuEheYhvCM29itTfYhdsAyw2GmM8AoZxIp2TO0OkRE6PcQHiGReZEEAACAASURBVA3xAVN1EwSiKmCJCXKXVVHuA0t+92Bxh3FwyU/8Yzlo+B6W3oF/s+fPgEzHAw+5fBbNEftWmlWA85DqlJdou6xD6iAe6S4iHnanqgB1oposBlmqvEtJ904Wm7AIY/EM8aAcgHIoL1UeK+boFAuOT5UM7sQ7ygF6ZIN1UYBQYhSXkEpEJ+gnGblTQBuyU7o+03ZZBKVpiaR5vmSTBz0kbDMHaYNckgkwHrlMJ9aSeUI91iyyi+UlD0ldm2MqDbCmbAcrS5dYXB6S34rxaiIqBIMwEAMFsLKLrJVscfYdKwdTncascSkvV5364WVpb9sQVZh1eTu7Ja8x/v8Xd7XLceQ4cmRrLvZ5LuJefp/pIu7fxe16xrrEVyIJsqpblmz3THSDIL5IJoCqUkt+0GJw0bI+DWuH1uX46opP1kb8QBFvs2wkBAU5m6MD4zP6xzRLWI2Jk6/j2o+nc2xITGm4UjwcaWWy8SiTtYOBq/1gsprEUAWYaZhisdDNWAXoBIUjXxRmRRiPGkoQ9x8LQEe9gNgQIDpoYRB0Pfgc0kJUHBYa9owWqIPuqWqLbCQwy15ybAD0+xGCtcjddRdhrSChXgiJnbiHjYJBDT6kb0AFXYVNmCK6Yqhnp8Ks+G4kZPv9pnNAiGcHmicbynrrGZEwAHqn68D2y3//8z/b83OUHp5q8MxuCanBqnxLX50fkQrtYzsJq12UfXwsbcP/msVj8rqRaIkfh8OjmMYuxpWrf9AmDZJDglMwRiYtXHgw9nujujHFqaPfI/PK+yZ8PDKekXYghcpeJmzF+K9eSoPHIlLzi3AwtRXRl5YJMt1gNwMtDVz3VVpCt2X8suVh27ivGlzRIFgOBp/Dq3bCWsN6xGRkLyEH1thLWBzAZCVRJl3/MEFrJCwA/FcvBoaiQfDw4BQVpHdiR0uZf/xJayGqoAKHkdCQAmwIEELgK8ZMTGotxHhSmNKCgSFPE7QN67IANPfKZ+yN4dH1VbM5dxeeOi3eEDy2WyIXOnrAjVme+pWMmtL7Bsgv7YTVdje0VbEhMorapdlxVjcehwMdXgVDayTorjlVMcmh5SuzFAjie+femPnB4ZVfhTxNH4V35q4rMjwsdh2YVxQxK2ZuS7+JiIaA2VllWFmUrzWCvqCrpYH8kZnmomqBTEU4yzvLPblaC8AkOihwRdDjlYBaYwGiO9adaCccspGYetV0LSlkklDJm2CemVptHsoOawXTeUcOYcPzgmue9U48E9hRhqZilrii8BBQjEFGwzvCDDKEU9jk8WHII8up9a+o6OzLm/0HMXqku+b4j6PY4YCul//553+F6R9450HeEvOAebq7R60L+6xy1AhRkgJaYZ9JtYdJhl2tzJ+5q76U/hS/WA/t0Dh+YhWv5uQFchx/zm4fQMfG+1TG1TYe/R6b2VnyFLZKKs0YhMnagdUqwFhBuAvME+HUbjtLU/2K1gKxyNQv99DLVX7ClaYogyEWyGHFD44WjuCgQNAdtYIYRUdn4Z2WaZO1Zr81YTthHWAvIQf2SZNYmaeD1rCeoI9XnEt9YNaY77qzJGzALOQQNsSMAuZqV5+IMUUUG2CN4c4ZAg9h5hZqgVjWeKTfFQ3bsFxZ6unASBwl3UUYbHLchwHmQNcr9B++hj/Kk38iEis8b/aD5bCxrXWcMEsZujgSiwWFC6SJGDPXm3u0k8y4GpQwzsJqTekrj2wDYW6vp/tV6HBMC3RXvrqRFMdUb9MT8Erz9Tm8fXTIRzOaq2V09ravVbV34XEQYXbfPVimJI0gTcgsAUsdChQTnx1vqbCSsqCElJQVU2JGOV0LqQLxiq9rFQ2i6bd+8hYp+vr2dWTpn3Wj8+dbeTGt5ZlG2GStjyErfgzxHgIIlcvkVBBfqtsNPobxFC4s0DI9shgx6/dewilYI03CmbM+aBhP1gFVMZtMEwyUZo4oU2mFTYFhgY0zsZMsVoTKiGEfCpbGZJ+MA0yGTFXXGH0lwXMNMyixGYBWdT0CTPHgQI8pHcJCDEFks/E/DON8qCK9vn9xoBFvga7sLmrLxB+9KH8iJm6IleX4y8WRWZOnzwUWa6XUKaVhJhCmVWbYpnzBK+fJp5GYWPhdYmxSp0IY71/5Q1yyVoJ+qV5Zcegl1UjeKFOEeaep1cMYvdzsxhB917C6ptq/7G2RU6dIloYU3WgXi5WmESsI9tLlh4qWj5ARsVS7Mh4dxrWiuERlqaphvqv9OC2lgYkdBBrP4ECWhSBlTi2HIYNglQ8maz1lmJLg0B1ng2A5GHxXyYZER+GCZlmSyNkJ2BFmgRXMIlkTTJKA36N5yFFdTQEqUoCzmCITBNFCgkhglDW1tBy6+AjhlgO/MKMAw1Ax5rPh6RJmJoP/7PvoWdiPAODRhDkdKh2zsBDMIwEZADgQ4gKmRHS97ubC6NU75YOQ4RNNhYd6Zf0hXyECYTWo9JVYFb6G1MHj2rGGF95PhOKF0+4HB/vJWqqn8cxvK3IJlZDnRuLGeGtb6rmEzYVL1xsefxT5OZ/jajirVGWm+tDGY3yPZDCzIWmMkYVMfrfYa0QH4hSdQmXc93AqAqJK9aYDNkrl0Id8KuNK2g6MdYGNh3c8iDI9VyEYnL3lhDxzLYas8jHE+xCA2V0mhP9e/yghLUCF20BrNEJOEGMYRronFW7BZ5VeGslF7jCYx4RaIM3EMceCHmbuwsRNYgVap2x3tdwGMinGDXoc360ELYeUD9s23cnsDjNMOtJiJq5yij5d5fDIoMiTCg9s/BjivArAsGkGgd7QdYRYmCRoExzwtdkcnoxRGqL7i7NC5PEwvgOYeKJ69rv1ew6NhJgOh9llar2xUBfEkDJJE4637qqgu5CGUaBNe4Lz4PTlfErgVEu27LCjME+2RuIqlNeFR7/y+S7B9PUTiGwnIzEK5RoDG5s2pGe7UTXF6Ea2jdxbJIJ4T4/adbhq5nYmoxSUXYacMB41gBYwq6WBATjTIkripTL263tbDnMtAhlDMHcOk5+xk7ifohht3hKXuW9REY0kjMvTkuqvAozgnjjaMfuV72pThDthgymYaYiqbhw0caJR3RcQlbyhw74KAELdZxJdOf9Wv4KLMZEGusBm7MKbsXOzl+hZnyHQZ4QBXrFwWPCDhamvTnxxm8DtF3+i/LDZAGO4KHnHvcsJZAu2GHRHzEPi6ZITi7l698WwpPayKU+D4AybhNc+RfUg4mlV+NIpNSiOGpcQFj67QtjolqA2n6BbsQI49JLyy2BaSxG5ussCXHm3Tn72qJC83YuYo05gd3tqSJYQm5gz1/hNt86ufeHn0ZV13XgqpCUhPYB29MyPgsKO1pQKwIyFX5wCmU7YsVRIrAIsAcz/m5bjkdobc1A4mYPkBPF9qU/LZFxjLiwfjK5DX0Is+Q6lQ8obt/pHYdXMk6n0lYApPHoxzdVyGWR2mJViGl271VkDZmFmAUwdWSPE9NcXMbOynx2Vi5YP5DRcJaUJKkgTaaCVT7xRJkyHjG4U+Mu21JGlQR9+x9+hdALqvm/cimeaDSwd7l0iHr4LtnKpvKV6380K10aCPoLQbYKMiulGQHiZWkvOMiVbNnwtw9jBRh4mH6IzDChGlV4iXHzJYD3yH2skHefYIvHTJFHbrE+l1myJGxQiMjyd+5wHxq4ASZ6cqh9bUQikL8eCdp1w2pbX+x53VK7qU37cX6UorBjunBM1RRebfJdj7wkmC0EMzaUZeWfLMctMNxsgmBldsO0dHYtJ2lynePk5+BiOhkQL9EuPh8tH6BOBmoNKHwWOTWIPbnDKVONfAwBdm6NZqfTI0DcuEqpxZNpyhvePDwNsmo8Kp/ciDfEQXaAJuYhTp8DRE8GwdjJk7Z2RxHmbuod70WwINkKLdzbWXdg/2sFKUeAdgGPQXAwJTulKQFMAtMoo36akncwpVoi1PahB7h2Y+go4Ln51Gs8dxbjQGjY7BDQX3LslLZTOwD88XTbLIDntri5fOMXNWWBTFjjbKFnW8TMHVbvVdbaT9Xizgq9n8Ww3WlsRdpAba30lbdrGCj/3mQ/islFBaNlE25zRinpoSeZ2wliUhloCff2hD+JgPMX8FOkrtMAjx4mrltPV3AIcWxms9Z1mVzYfdKxsG7FG6NRsJxtcTZhMEmASjSpwzFyRbISb3euXqDzfRc65WZXTToKbVgvRlnMdzUdn2MzCUAxvkAaxDJV3TgVCs4BVBORA80In+LUuE9OzsHG9oBJZbLvhQA/jZjbA3/y+s4GreoZGIKHZ3D0Z+5GmgiB59lwMCU7VWlqYHBCUN2vSS+ZUZHlqLtAcjqJzhGDuUWr1h8h0ZccGqykJ7AzWMKcq7aBqk3LKYHt5ppfQPgkGTw68xEoVeeL655KnTc7T0nhCDKEIM/KqNqbCXEs5uNqKTIUwwTe6yhrxwcLRTaVkMoWYsbRcBluF1ceDYlE4l4Oy34WgOJn/zHyaDYFjy6ltWFKDzEGwLgy+JROBss0xDJ3hMRBX5JDgFBTJBM3MXZh5JnfZqgGQrsA7UzQ3xcU5MSVIdQ1ripY4rHGNwhA+nSh3uSdx6ZN4W4/DgqxkAZ29BwGF6pYdjTrIjEM/bUXKmxf/aiu9L83GTcVWQyBzHAdjQTS0XDeazXwyxo4SW/mOmxXzkNuUIOORD36YvnonKEOARtS+TylK2jWmCohhQOEYHL7bOTE2BasZqbUYnxp2hdMDUKouU2p2kddBmW2bZY2H2/ZrqlfXnAqJHPXCCxll/iR64Di89GJ8HKAckonUDiuXdBQTJtIsd10SLBoPbGXOGPxri6pnxPUdKwuEQ6JVuG/tzkREAIXJAh7lIG3qc5UwDYNlyozo47XYIhNoTJhpvEqlkRD8m3eqDBlzWvuwT3GLdIqQJkGMkQN5zVnyKYktOjGJ5IfJ0gK0A5u1VfB/tN9ME66Fb1pAS59p/eyrL/91Nz6PDpBUTAmqvo6xE8zJiC2vpU54Q1CEHOkEfNgIJIPWwqi0Sbuo36u6Rx8ijNFs4isFBtcSiBMhtGoqms353uVDTcWW6L5B8FCbw/zG9PaiWMxQXQG0TS27pkha6c1ZYU6cniG7eTwDF2IbdtUpjq0Va2l2HPEqjmzaNsVQKQyRI7NUf+nnoSKL/15q/QrJsQ4uYgUklVxbkUlwdm1dkTPcHgslIiz55/sQVLUiVM6byfKeRcqqFatArYX5X0YynS2eCsZsjqdqMA4BrJAgcYd3b7zY3IUqmDmDAJY9knnCTAXYSxZmnlQjHGZavW2y0JOwOTXVskadU5KWISC6bfMqE0tRNwOHkTbkONYoPnk0gFdoABjckaO0oGKcI96Eb5vfqMNAl2dTCaDeH8j4i1NGePq84dkWXjV01+SsdzaPms1+75Jx8Kdc89krHPM466iaczV1RKQvr99ozVl14D5YpzTZxn4tQwYDG1hW4j8dnlEbk+JOw1iMP4JvupEPYKgPnS5IsII0pyK+5rxwjSrTbsT9TyIjgOHR04N1Uz3LFsxar2IjPUZXaMnwuzaVumdPqdrEruN9Cc+sK3BwO9MjbFDGvWSe57Wbu6hncXDUVSC1AB8713e0HClwoZvL8I9A485PGasIF7+0Ow5Ijcp3XJVtNNMWNLeGSNPKLkymp+ZL07QD9askYhxilpnYpixCirJFSFezCFugu52YjWkDSRxZYEmUfhbp7thXclckcaIDJX5WvCEk7T02xO6ELgZmOVGf6uuiDJS+L2hI2efA8D3pZlP79myz4WWNWXbv319w71JmfBc/uanAJgFKVG1HCymszv3Xm8osAdYNhwsuOANHjChwMUP7vrHiSxxRxuSFf0awB9B4NRfB8ndVJ5tMSjanQrrmnBuJG3/ZN5lOfzGhu+Bwf+PTngg14tnEjB3pHQL+vrQicCT3WoqmjrOQa4HaZDpi1tVMfUowlJFy0LUgmPV0xYpFXX4y/yvDaRNAMwRcthz3CHWzxoCImYXb22AUrwRXts1wE8YU4r9qSCFZgNTsaNgzKkmZJXcqJTUfj6YWprte7Hy8i0ioEj92syZ40GOLfsbQtr2O1j9z4HDKqYBWIcA2UvpHdoU62QRKYQ8hE35GB97qLDAM+bf1UdjjZkPsVfxu2WMP49xMbzZ97/LL+soOoz7sOMg6bowWhI1hbVYoXcIX05UhZtBPS2NYXBxBHA7UiESoxhdaZTQGhk2DG+epRgKbpfjSpgJfEfHve5fDePEfMLxF2oyIiMXgb90ot/AkNlpR9yHJwOFN6kjN7FHRF5OfMsFhLQg+mE4AV3kaCCA4n9dyKlz75NWlMpPPmMcci8Lgm9qA6SZBaJlwzmrKNF1ohBDPvzbFFcUU+a0OEck+M0KDi6KbijfySYBfQZoI+TR1ZPLQTeeXvAKlhFb4RBg8QUyRJuQgFioxFTDzgtbYK5nDrU94wf1KqNBFLf/JZmMIjACIq+L0RYwH5N9IrvMIpOGvABTk8EsnHhFEU2Yj9vPbr6NL5ggXc1ABgFS0mbxMsZiaGPgy1ZbN2qKlU4tBsWC7JNYalOEINuNVC7HR6qXVJ9+hAXnqQiBexXmql5TW3khe4oGrukgHv/HD/0ZqoRZx5BPacWwRIEuRD9GN7MGv6OYybNvkkPAvZ0GmxHJCZSKBN1P+VLnsXMjQrLneC0E4RYJ5elummV9/I8cJTOS5wUhw2HIQh2uhpOalpWHQArP9CBe2wgrVHcAaL1rNJV/g8/KQzCBgtnZpmQl+lIllwleibguoa/pE9B5pCddql+xopi0ttbSRtADsFM47ZHDK/pJ0R6YmMn2dmWisFcxY/s8fJgh3+FlEvjBMge5dKDrOizCDuC8iV6L8QqCthlsIubpfybMYzcYMeQC4dfbweHeSdzaFNF7lXDYbfCP5L/xhGPvdK79syF/CMuuOVSOq08jfDOCp4PziWpkcEH+7KR6tcWAGFmPpsFgcY+a2uITl4gv/PSP7fVBfZ8wJiX2RkUG2JS2SnIyqFYNAcE7sTlvF44kYfB2qjj+MbrGkutFLHDmVTlosGLkJtV5uwhdHGnSFg5Ex8KdDts2MPxDlj8IiPqgbCqzr5Fn8vtuXtU/4Iv546q4FO7k+QAvdbX+dHWkzt74u61LTP35ApkDaZurEkkOBIgxx8WpOYaCOolORIa3CvELgkqlS1pfPu1nGs2j4oJyOmXP7MXibrUxJZlktDlPMxChVmYamlUJARFBlyj0Dq/njYbdfwmHQJfJyJOjQDbrSivvkbM1o0hIntdi9oGa+KZzWP/BxsbfTYnhUYUICogtfVJUvdGNv1V0ONE7jM6CYqLON81dF0u6CE6eK39X/9x//5reQF8JNGCeJl/jXWJeu4xH3r3pxrdjBWAw5ILZCaQHyZ5B+x5N4CK2e4mpWuEPdjyrRr2AK3AeCQyYQnJZNlJUQA8IXi7RXICDUXSXSJlKoeowJhk+q15QH7K2okZM28ReEYjnVEOElOTAXismxwcoxhnOs66xa6Dr10xfvOhbdb3s92yoKnRpoP+NSLiW5oeSEGPnUmgKcKGIIgL1xYvtLoQUknXKS5V6mEpHk3LQQqke6tUdSW2ycoX1ymrjWWstzaxiFTn+Vj4W66ha+RjSeuPDKFZuN7De4dnUVaTzIevwM2WRE3IZ4dSqVo4VZZsHU7yK0FiZKcUFEMS2hdq/Q+l0vPSChF+AJH2Eux109w/gitshwaSXA2QFIWiDRaBy6NWwUjatD3/3Xb398C+9sLVd/EhVi0mys68R1iZW1PLCXvNHB35Tg9pAw/a3rgBkC0XtCBu/xyqka8u4HDJ0idFywce/8G9xD/AB9cAv95mex6YNwd9V7XN3kJH8sJN737F2HU+ENLrXJwZSpm0lsYLQm5fjE6UYnJn7ZOwEnHg+t4iTWGBXdpdazVIR67kJJD5tjWGApaf88yGxVR1IXOkw5JicjJGek66JFjwy+OKkOPpe5xLoNbsRGkqvqnda29nEtaCvxuO1iyPYlFZrJVWWH6DueU+PJyzgNz+m8gKO7ZLZcNxLJ+mZWRpsBucpSAbMlum36t1CFATgniiwQwR6Bt8n0qS26OAqfaTSaRX8VBmiTRDaSiqcNFqfBGRgrU8yC8tEwfv3Xl2/1DwQBUBbUX3/8xX804gdaDizAzuFGBxPadTAMaIKIVxx5bOuYShA7XgYyMBWVF0YG7qsil4OJe/Cf6T0mlscVCWa7pBdfgd1OmIjQvecUlprM/OunMJGIR+7VFM/LAgbzI13HTPym17IMj4EA1Yh2McwOSZas4Ndso6M4NNxZQZYkavA6o0pmaq1mdbYztuKnNRKXV3xwR8ul3r9BWcGcPyk/pmlw8DG8UrmfwixsBib3ZLR029KQOTgSEKasG/EU1wTE7PaSHyv2XLccy7uy1iDIZAyFbiSU9Inmx3CdbWe/kGrAWC30hhDe5UwXPsQUzKKipo4raIHaP0KxXYRfmuWVSnM8SA5JDJcVP+5dvn/zkPmvrVmP8UrpXcdqJDhoOUbU46QPdh0zZXHmhvKOByy8+r4HA8HQgvgxFWID98k0m7PxgPOB3gPt6CWB9XrIVdFGV/AOFCsEsrP3ANPVdULLLGQXye246zqREmxIdlK2uJHDzlrfdBvXmQ+NruAFo4WwxT6RrdxdsjgZdQ99tZVgnTBlrfOkOHsYu8ySsVBcFzW85JALGbFBvTht5ypLGeTqkexL4kqernfNKxWXjD/YvCj5Jp8zMUA4Gs8xAWER/Eg0t14PbxdXy4BADS8xRybskZ/FwyS65SgtWmGmqleMXHGT6blbakcRxUcbI38n1MgCQjkshZ/SfQUDu0AjduPm9N13u6MkHQ2I7gIt6fvO4b4qBFKzr//nlxtoLd88Xp4dvtvyZNdhy4GjZ7tO7AjlK1fj5knueyCXILIOVGXlDHpz74YgpqAJGo2HazOr5TJ7jJkuTz5133vKV976tDKoxjo7UDYBOPVGApSHr3d3nexDZScj9oVzykLYXxTdpz6PQ1CqyROT29+CIpZpUMcdSTVyo4dlYsnPYBbKY7Qkp7Mmp0CRJiUkcBaPnAoXIzkhPQTAYTCcSjdPfFB3k2Umj5l6hDrYOeRfPDlO+9+4NcDsmcg0POcgExDKhzMGUx5XHX0zSUV96UnkU3L11e0n7G/A11Z0DOGzmPeOFHtKL21DoLLADyHK1GXAO2yeByrtlxFF2pPoev137n79pmd9lfmbfSHN5tB1eI5oOcZ5wb8Mk2rrjQ4m+/EaBmw8e9exWfxXrwNdqZ5TPrxqP7z7eR/oidRx04OoYuqq90Bgaz/gxWVLtxzfOBvmbuVWouvEntpEOuqfc5aRapYQdhkTjZOAQd85WI2puvup26Da1Wc+CzxTlnszJ54ZE5oiPNMDU9U/QipyrMXcCIfZPCrcJSFxXMNjgaf9DwE74TqVEBoCc7axeugTFCYR1mqomdkh4fj2OHX6RN80Bvty6el19Q+6UPZKYE093wH5aSvU9x+4OvMchrl7iCrWGpXUnnQSWNrP7oUqFoHlYmaND3/eW8NrDSA9Ct4WKAq/kQYdNobQL2i9I/4Vk22cHt0msUpw7pC7QloEQzjh3sVAg18eiB/uf317++a74htiKPGvu5oWvmmNluOc5250IPryN3+ogxF6w3jC5kzJW3Pn37LGxNp+dPgJoFfs8uzHTQ9chtjee3oKlL/0iTMYqRhTmWzAdDae7Ts2aBsfvdGBq+o67vXZt86BZzUu5NZWEUKz6NvGbA4d3OQfu0jbib1kPlwbXKI8OF1Q15kGNTFuRoYuhxQrzk1a3mfjEuo2YK5uM+jOp013uZspzN/P4h+vvUpDXgXOHPRz0Yu/PVpwvuRl4HHSmLwBPV8mmonMpqVRafsJ2xSLoZkuRZApc7l7VPpMQgJYQKVto7Bkfgkw0Mq/iemhWNgssSvEEq5XOLniR2icff3fL6+vdcnz9e17bDx6TBKf3XXgnrc7oPmjneT7dwqMXh+REtNH0HPWjfAKKwlaPt/mY9oxdolmjwZvnciKEvCzkVS1UljnFNZjPgzTzWmsf3rXgZ/f+dKs8DjYORiVbUNsQAE9+sdVF0kLtFxa84IODjhFZ9QKzhAYw1vhq2yEYU9IWxJTiwQDUeJ+ViWVvtFCS1DJQd8oQvI7i3qp3VwFHnMQN9Z2I/7oNfJ6F6dANKoQ0J7ESJeEDblILjWqyQj+FMAjmE5D1Zu0guRJlWlCxtgndavGlVYoKl8sPSSJ2JDcb0f2RhJQeQCYroaHEAhFPBnDr7zgfsFL7MtXazB4veAfrcwNIMdajk/hRgefH7nXgTofshm94nJrPxCxzAH/vaA/Nh439bj3QIwP3EDjtQB6gIw49v1bUAvJcfdjnLB42XXi5t3uddzyux6vuelf8cZUPzg75QObRxLMsUqkcxfhxV3YLOFDI9mdUjhCXAU095h4ITieBlQSWsRMvBuCCXbYmadZtH/U2FsCxSpaMibx993JYYH1k0G/oebjh6j4ew6Gdc216a/G2pmKt3zSCAlMs+VMeq0byNd6Ulc2cUW5tbwli0vwRz5HBfgRE8vF0A0aj7YHRI8yygxUEFQ3BLTuAUxdtU+ayMS9y3+8ViOSe5fvaDl4Wdd5sUdVnLrpOi7/1BM2SPIhm9HVyVii3aPh4vDNAnCfAL2ik5hWJszoMGmvd83PYSJ0v/uxWGIymsroQDZdFRRrG43ntuuky+5DaeeZGx24/S0vNo/Fe22AMb3W961MlH5W/Psu0mK+NxyWM01O8J7vFhZXpUAYuxlyiulHDpOqIjp8Pqz7B51i3bSEh2btD3Jcv/D7XcfJ4yVg3lXEk1xRqyYkrI384l893djNYCPpHLQqdPm0HJoqGat8wDGVTK92/CNUGpkt7WlToz3oIRJUTxszwYdaIUCxHcN0dw9mDZUqQShKX//18vovlHcvyQAAAxxJREFUZ1uP8e2SRpIlkxwQD7sOjIn85RM2iHkvSVgnfDIAC2i0n2Pj0Zsegr5Qnrc7MIWrLaLW/OK/eilwx9TlsDIx7fTQoo8OZLqJvdvfMI1VYZuZ3kHgXocLTg4s2nGUVd79pHvtOhD7hNe46n+Pxe4foXXsImwPY/aCH82DPUMzs7BeJ7GlGdMpw7nuJcy3s2Rd8pdH/Kgrc4Sc9+zTWfa+E4TOVT/IsBMlZ/vg3rvADXP8OaubHNxN5/OPfUI4mrDCbpIPwSqLbWrvSZrOLtAZHbZGXh9ltA6E1g++F+7ea1BhqfQxjIcCR62BZ8iEHTaPK9wS2EezV1oQVmjh3uUfr/63q+T5GLBlpfkHuw405QkbRsvtjuOeD9kwO56zgSNfK8Cov8xmwn6QAH3AdP8WtatbwhPH7DquHihcGg/4eN3jdYBVYaS02WHr8lBtmAQu9mzx3nWMsJseL019q84eg9YSVYscEPvjNVjBUth12IfA//UvdgW6jnsR8o9dhD3MxXj/MbqIo9n2MXMjd8c87VmnnJFdOmW61RvMkJnyo4oBtvZilvlzX+LLTH5yoYP//JB+dxX0g/uXIf76tcc2chCqdv136yWT+tqLG7k1YWmY+qNXMZ1z2r41OU1pQ7IHIpaMU+Y+zaGCP9L4zA+QMoyLj1EujlKKTDjF/0exG+ZA741kTBHeAWwOj4q3YLsLVbGEe5c/8T8cvMZPXAxGKIPBMUxq18EQjeddXScsmCKSd33IBubSeDB2MLD3HBtP4c9WyDsedh1nmhX9IrUxvXiN52zg46XtB8PCaHcgMI/PmruRmBkE0/fvGOosaWk2P7nreEiXb6z4lxIfmAh80UUQBJ0PRxfhjQgRP7rIGDIzP6VbxFI1nUbbYOwqie6PS5WHZf1d+3jfA9TUCEmnQP+9/7RhleAd9srOEdSZg2BpGh7lg/lMd+FfMrqy87XaAf78dWV6y84egyPQQmffUC39Upoqp7ZUsvOzSsHkPzHmn9ea8VCXUCdHiXFlo1P39AOz3sOwZwhrgHyYvQGYZsrQwlAz4v8BD5CG3KdNSI0AAAAASUVORK5CYII=;" vertex="1" parent="1">
          <mxGeometry x="329" y="25" width="112" height="70" as="geometry" />
        </mxCell>
        <mxCell id="LZZpkKF-DLMGYk2NbYWf-49" value="&lt;b&gt;scattering coefficients&lt;/b&gt;" style="text;html=1;strokeColor=none;fillColor=none;align=center;verticalAlign=middle;whiteSpace=wrap;rounded=0;strokeWidth=2;fontFamily=Times New Roman;fontSize=14;opacity=80;" vertex="1" parent="1">
          <mxGeometry x="446" y="41" width="148" height="30" as="geometry" />
        </mxCell>
        <mxCell id="LZZpkKF-DLMGYk2NbYWf-50" value="&lt;b&gt;MaxPooling&lt;/b&gt;" style="rounded=0;whiteSpace=wrap;html=1;strokeWidth=2;fontFamily=Times New Roman;fontSize=14;fillColor=none;opacity=80;" vertex="1" parent="1">
          <mxGeometry x="318.25" y="521" width="120" height="33" as="geometry" />
        </mxCell>
        <mxCell id="LZZpkKF-DLMGYk2NbYWf-51" value="" style="endArrow=classic;html=1;rounded=0;fontFamily=Times New Roman;fontSize=14;opacity=60;strokeWidth=2;" edge="1" parent="1">
          <mxGeometry width="50" height="50" relative="1" as="geometry">
            <mxPoint x="382.17" y="554" as="sourcePoint" />
            <mxPoint x="382.17" y="591" as="targetPoint" />
          </mxGeometry>
        </mxCell>
        <mxCell id="LZZpkKF-DLMGYk2NbYWf-52" value="&lt;b&gt;3 x 3&lt;/b&gt;" style="text;html=1;strokeColor=none;fillColor=none;align=center;verticalAlign=middle;whiteSpace=wrap;rounded=0;fontFamily=Times New Roman;fontSize=14;" vertex="1" parent="1">
          <mxGeometry x="452" y="525" width="34" height="25" as="geometry" />
        </mxCell>
      </root>
    </mxGraphModel>
  </diagram>
</mxfile>
